<?xml version="1.0" encoding="UTF-8"?>
<svg width="160px" height="222px" viewBox="0 0 160 222" version="1.1" xmlns="http://www.w3.org/2000/svg" xmlns:xlink="http://www.w3.org/1999/xlink">
    <!-- Generator: Sketch 46.2 (44496) - http://www.bohemiancoding.com/sketch -->
    <title>icon</title>
    <desc>Created with Sketch.</desc>
    <defs>
        <polygon id="path-1" points="149.472471 169.863353 18.0002648 169.863353 18.0002648 0.0134475155 149.472471 0.0134475155 149.472471 169.863353"></polygon>
        <polygon id="path-3" points="18 200.895265 149.473089 200.895265 149.473089 0 18 0"></polygon>
    </defs>
    <g id="Flow" stroke="none" stroke-width="1" fill="none" fill-rule="evenodd">
        <g id="Other-States-for-Goal-Pod" transform="translate(-510.000000, -1569.000000)">
            <g id="Program-Overview-Copy-3" transform="translate(165.000000, 1443.000000)">
                <g id="Dollar">
                    <g id="icon" transform="translate(345.000000, 126.000000)">
                        <g id="Group-3" transform="translate(0.000000, 31.031911)">
                            <ellipse id="Oval-Copy-9" fill="#CCCCCC" fill-rule="nonzero" cx="79.6497592" cy="185.614705" rx="79.6497592" ry="4.64661654"></ellipse>
                            <mask id="mask-2" fill="white">
                                <use xlink:href="#path-1"></use>
                            </mask>
                            <g id="Clip-2"></g>
                            <path d="M29.8260454,0.0134475155 C23.2969716,0.0134475155 18.0002648,5.31725378 18.0002648,11.8729176 L18.0002648,158.003176 C18.0002648,164.559724 23.2969716,169.86353 29.8260454,169.86353 L137.638745,169.86353 C144.172233,169.86353 149.472471,164.559724 149.472471,158.003176 L149.472471,11.8729176 C149.468057,5.31725378 144.172233,0.0134475155 137.638745,0.0134475155 L29.8260454,0.0134475155 Z" id="Fill-1" fill="#7F7F7F" mask="url(#mask-2)"></path>
                        </g>
                        <mask id="mask-4" fill="white">
                            <use xlink:href="#path-3"></use>
                        </mask>
                        <g id="Clip-5"></g>
                        <polygon id="Fill-4" fill="#FFFFFF" mask="url(#mask-4)" points="25.6246093 191.686371 141.848479 191.686371 141.848479 37.4822953 25.6246093 37.4822953"></polygon>
                        <path d="M114.966545,31.0453589 C114.966545,31.0453589 111.222656,40.2064788 105.78029,40.2064788 L95.4605399,40.2064788 L95.4605399,31.0453589 L114.966545,31.0453589 Z" id="Fill-6" fill="#A15D2C" mask="url(#mask-4)"></path>
                        <path d="M110.916418,37.4835339 C109.490722,39.0105346 107.222848,40.2066557 105.25777,40.2066557 L95.4606282,40.2066557 L95.4606282,37.4826492 L110.916418,37.4835339 Z" id="Fill-7" fill="#B2B2B2" mask="url(#mask-4)"></path>
                        <path d="M82.9052263,19.6507128 C79.6512828,19.6507128 77.0135228,17.0027909 77.0135228,13.7461919 C77.0135228,10.4807458 79.6512828,7.83370859 82.9052263,7.83370859 C86.1635837,7.83370859 88.8013437,10.4807458 88.8013437,13.7461919 C88.8013437,17.0027909 86.1635837,19.6507128 82.9052263,19.6507128 M99.5925008,12.7146259 C98.5667053,12.7146259 97.5709244,12.8331763 96.6007443,13.0437361 C96.241451,5.77765425 90.2526413,0.000530822979 82.9008124,0.000530822979 C75.5622252,0.000530822979 69.5725327,5.77765425 69.2061771,13.0437361 C68.2439421,12.8331763 67.2561063,12.7146259 66.2223657,12.7146259 C58.6427783,12.7146259 52.5056608,18.8721724 52.5056608,26.4602869 C52.5056608,34.0484014 58.6427783,40.205948 66.2223657,40.205948 L99.5925008,40.205948 C107.164143,40.205948 113.305675,34.0484014 113.305675,26.4602869 C113.305675,18.8721724 107.164143,12.7146259 99.5925008,12.7146259" id="Fill-8" fill="#E5E5E5" mask="url(#mask-4)"></path>
                        <polygon id="Fill-9" fill="#CCCCCC" mask="url(#mask-4)" points="33.0744273 63.6219949 134.398661 63.6219949 134.398661 50.0919951 33.0744273 50.0919951"></polygon>
                        <polygon id="Fill-10" fill="#CCCCCC" mask="url(#mask-4)" points="35 91 92.2335645 91 92.2335645 84 35 84"></polygon>
                        <polygon id="Fill-11" fill="#49C57E" mask="url(#mask-4)" points="126.425529 73.6209006 115.205338 84.8646161 110.047229 79.6952849 104.280881 85.4741778 109.43899 90.6443936 109.432811 90.6497018 115.199159 96.4285947 115.205338 96.4232864 115.213283 96.4285947 120.979632 90.6497018 120.971686 90.6443936 132.191877 79.3997935"></polygon>
                        <polygon id="Fill-12" fill="#CCCCCC" mask="url(#mask-4)" points="35.2813885 116 92.514953 116 92.514953 109 35.2813885 109"></polygon>
                        <polygon id="Fill-13" fill="#49C57E" mask="url(#mask-4)" points="126.425529 100.604314 115.205338 111.848029 110.047229 106.678698 104.280881 112.457591 109.43899 117.627807 109.432811 117.633115 115.199159 123.412008 115.205338 123.406699 115.213283 123.412008 120.979632 117.633115 120.971686 117.627807 132.191877 106.383206"></polygon>
                        <polygon id="Fill-14" fill="#CCCCCC" mask="url(#mask-4)" points="35.2813885 143 92.514953 143 92.514953 136 35.2813885 136"></polygon>
                        <polygon id="Fill-15" fill="#49C57E" mask="url(#mask-4)" points="126.425529 127.587815 115.205338 138.83153 110.047229 133.662199 104.280881 139.441092 109.43899 144.611308 109.432811 144.616616 115.199159 150.395509 115.205338 150.390201 115.213283 150.395509 120.979632 144.616616 120.971686 144.611308 132.191877 133.366708"></polygon>
                        <polygon id="Fill-16" fill="#CCCCCC" mask="url(#mask-4)" points="35.2813885 170 92.514953 170 92.514953 163 35.2813885 163"></polygon>
                        <polygon id="Fill-17" fill="#49C57E" mask="url(#mask-4)" points="126.425529 154.571405 115.205338 165.81512 110.047229 160.645789 104.280881 166.424682 109.43899 171.594898 109.432811 171.600206 115.199159 177.379099 115.205338 177.373791 115.213283 177.379099 120.979632 171.600206 120.971686 171.594898 132.191877 160.350298"></polygon>
                    </g>
                </g>
            </g>
        </g>
    </g>
</svg>