<?xml version="1.0" encoding="UTF-8"?>
<svg width="155px" height="167px" viewBox="0 0 155 167" version="1.1" xmlns="http://www.w3.org/2000/svg" xmlns:xlink="http://www.w3.org/1999/xlink">
    <!-- Generator: Sketch 46.2 (44496) - http://www.bohemiancoding.com/sketch -->
    <title>MISSION ICON</title>
    <desc>Created with Sketch.</desc>
    <defs></defs>
    <g id="Flow" stroke="none" stroke-width="1" fill="none" fill-rule="evenodd">
        <g id="All-states-for-Missions" transform="translate(-5268.000000, -1029.000000)">
            <g id="Mission-Packs-(Sync)" transform="translate(165.000000, 860.000000)">
                <g id="Mission-Completed" transform="translate(4899.000000, 0.000000)">
                    <g id="MISSION-ICON" transform="translate(204.000000, 169.000000)">
                        <path d="M139.744846,162.214683 C139.744846,164.439845 112.682927,166.244348 79.2984506,166.244348 C45.914875,166.244348 18.8529564,164.439845 18.8529564,162.214683 C18.8529564,159.988618 45.914875,158.184115 79.2984506,158.184115 C112.682927,158.184115 139.744846,159.988618 139.744846,162.214683" id="Fill-1" fill="#CBCBCB"></path>
                        <path d="M123.114698,12.67196 C123.114698,12.67196 128.137779,17.1304086 131.720802,19.2030141 C135.302924,21.2747168 141.201936,24.7889384 141.201936,24.7889384 C141.201936,24.7889384 145.919523,26.29916 149.674669,31.3931114 C153.429814,36.4870627 147.723651,48.3720465 147.723651,48.3720465 L140.191733,55.9150303 L127.144698,53.9597762 C127.144698,53.9597762 121.18711,48.0867924 118.609785,47.4205978 C116.032459,46.7535005 114.456326,41.8346735 114.456326,41.8346735 L109.12775,41.8346735 C109.12775,41.8346735 102.889,37.9918681 100.585628,35.2386249 C98.2813547,32.4862843 102.537547,18.2578843 102.537547,18.2578843 L110.066762,10.7158032 L123.114698,12.67196 Z" id="Fill-3" fill="#FEFEFE"></path>
                        <path d="M31.5419593,12.67196 C31.5419593,12.67196 26.5188779,17.1304086 22.9358547,19.2030141 C19.3537326,21.2747168 13.4538198,24.7889384 13.4538198,24.7889384 C13.4538198,24.7889384 8.73713372,26.29916 4.98198837,31.3931114 C1.22684302,36.4870627 6.93210465,48.3720465 6.93210465,48.3720465 L14.4640233,55.9150303 L27.5110581,53.9597762 C27.5110581,53.9597762 33.4695465,48.0867924 36.0468721,47.4205978 C38.6232965,46.7535005 40.2003314,41.8346735 40.2003314,41.8346735 L45.528907,41.8346735 C45.528907,41.8346735 51.7667558,37.9918681 54.0710291,35.2386249 C56.3744012,32.4862843 52.1191105,18.2578843 52.1191105,18.2578843 L44.5898953,10.7158032 L31.5419593,12.67196 Z" id="Fill-5" fill="#FEFEFE"></path>
                        <path d="M65.07675,56.0704757 C64.2323605,56.9163081 62.6309942,56.6969514 61.5189593,55.5830162 C60.4060233,54.4690811 60.1879419,52.8640757 61.0323314,52.0191459 L112.447273,0.515443243 C113.292564,-0.330389189 114.893029,-0.111032432 116.005965,1.0029027 C117.118,2.11683784 117.336983,3.72094054 116.492593,4.56677297 L65.07675,56.0704757 Z" id="Fill-7" fill="#0282A5"></path>
                        <path d="M116.725544,34.2909676 C112.995631,31.9917838 111.162666,30.8101459 108.214962,27.7283189 C111.226648,24.7105838 112.733392,23.2012649 115.745078,20.1844324 C118.694584,23.2662595 120.527549,24.4488 124.25566,26.7479838 L116.725544,34.2909676 Z" id="Fill-9" fill="#00B1E0"></path>
                        <path d="M133.739407,32.332193 C130.011297,30.0330092 127.984581,29.0454524 124.256471,26.7471714 C127.267256,23.7303389 128.774,22.2219227 131.787488,19.2032849 C135.5165,21.5015659 137.543215,22.48822 141.269523,24.7892092 C138.257837,27.8060416 136.751093,29.3144578 133.739407,32.332193" id="Fill-11" fill="#00B1E0"></path>
                        <path d="M134.71014,46.4501022 C131.76514,43.3610535 129.933977,42.1776103 126.207669,39.8784265 C129.219355,36.8606914 130.726099,35.3504697 133.738686,32.3327346 C137.465895,34.6328211 139.297959,35.8180697 142.241157,38.9062157 C139.229471,41.9221454 137.723628,43.4314643 134.71014,46.4501022" id="Fill-13" fill="#00B1E0"></path>
                        <path d="M118.676651,47.4206881 C114.949442,45.1206016 112.922727,44.1330449 109.194616,41.8347638 C112.206302,38.8179314 113.712145,37.3086124 116.725634,34.2908773 C120.454645,36.5900611 122.48136,37.5776178 126.207669,39.878607 C123.195081,42.8954395 121.689238,44.4020503 118.676651,47.4206881" id="Fill-15" fill="#00B1E0"></path>
                        <path d="M154.509317,38.6511119 C154.31827,38.1835119 154.216439,37.9560308 154.002863,37.5100957 C153.048532,35.5088038 152.459172,34.6169335 151.138067,32.9803335 C150.604578,32.3204578 150.323416,32.0045119 149.741265,31.3933822 C149.143794,31.9909714 148.84641,32.2897659 148.248939,32.8873551 C147.920015,33.2168416 147.756904,33.3811335 147.42798,33.71062 C146.278997,34.8606632 145.704055,35.4356849 144.555974,36.5866308 C144.227951,36.9161173 144.063038,37.0804092 143.735015,37.4098957 C143.138445,38.0065822 142.839259,38.3062795 142.242689,38.9038686 C142.825741,39.5159011 143.106003,39.831847 143.639491,40.4926254 C143.935073,40.8564146 144.077456,41.0432741 144.355015,41.4233119 C145.326468,42.752993 145.762631,43.4652254 146.505189,45.0232903 C146.717863,45.4683227 146.819695,45.6967065 147.011642,46.1625011 C147.35859,47.0110416 147.516294,47.4497551 147.790247,48.3723173 L149.282573,46.8765389 C150.76048,45.3979119 151.498532,44.6576957 152.975538,43.1790686 C153.305363,42.8477768 153.469375,42.6834849 153.797398,42.3558038 C154.62016,41.5298308 154.989637,39.8192092 154.509317,38.6511119" id="Fill-17" fill="#00B1E0"></path>
                        <path d="M131.980247,61.2177768 C131.788299,60.7519822 131.687369,60.5235984 131.473794,60.0776632 C130.519462,58.0763714 129.930102,57.1835984 128.608997,55.5479011 C128.073706,54.8880254 127.794346,54.5711768 127.211294,53.960047 L128.703619,52.4651714 C129.032544,52.1347822 129.196555,51.9722957 129.524578,51.6428092 C130.674462,50.4918632 131.248503,49.9159389 132.397485,48.764993 L133.217544,47.9435335 L134.709869,46.4486578 C135.293823,47.0588849 135.573183,47.3766362 136.107573,48.0356092 C136.401352,48.4012038 136.545538,48.5871605 136.823096,48.9671984 C137.793648,50.2959768 138.231613,51.0082092 138.975974,52.5662741 C139.187747,53.0122092 139.287776,53.2396903 139.479724,53.7063876 C139.828474,54.5531227 139.985276,54.9927389 140.25923,55.9153011 C139.661759,56.5128903 139.364375,56.8116849 138.766003,57.4101768 C137.290799,58.8897065 136.550945,59.62902 135.07484,61.1094524 C134.745015,61.4380362 134.581904,61.6032308 134.252078,61.9318146 C133.428416,62.7577876 132.460567,62.3867768 131.980247,61.2177768" id="Fill-19" fill="#00B1E0"></path>
                        <path d="M95.8835407,27.9817978 C96.0754884,28.4475924 96.1755174,28.6759762 96.389093,29.1210086 C97.3443256,31.1232032 97.9327849,32.0141708 99.2529884,33.6498681 C99.7891802,34.3106465 100.069442,34.6265924 100.652494,35.2386249 C101.249064,34.6410357 101.54825,34.3422411 102.14482,33.7446519 C102.472843,33.4151654 102.637756,33.2508735 102.965779,32.921387 C104.114762,31.7704411 104.688802,31.1963222 105.836884,30.0453762 C106.166709,29.7158897 106.330721,29.5506951 106.658744,29.2221114 L108.15107,27.7272357 C107.56982,27.1152032 107.288657,26.7983546 106.754267,26.1375762 C106.459587,25.773787 106.317203,25.5878303 106.039645,25.2068897 C105.068192,23.8790141 104.631128,23.1649762 103.88857,21.6078141 C103.675895,21.1618789 103.574965,20.9343978 103.383017,20.4686032 C103.035169,19.6209654 102.877465,19.1804465 102.604413,18.258787 L101.112087,19.7536627 L97.4182209,23.4529384 C97.0901977,23.7824249 95.9583372,24.2057924 95.6294128,24.5361816 C94.80575,25.3612519 95.4050233,26.8127978 95.8835407,27.9817978" id="Fill-21" fill="#00B1E0"></path>
                        <path d="M118.413512,5.41423027 C118.603657,5.88002486 118.704587,6.10840865 118.918163,6.55434378 C119.873395,8.55563568 120.461855,9.44660324 121.782959,11.0823005 C122.317349,11.7430789 122.598512,12.0599276 123.181564,12.67196 C122.584994,13.2695492 122.285808,13.5683438 121.689238,14.165933 L120.867378,14.9891978 C119.718395,16.1401438 119.145256,16.7151654 117.997174,17.8652086 C117.66825,18.1937924 117.504238,18.358987 117.175314,18.6875708 C116.578744,19.2860627 116.279558,19.5848573 115.682988,20.1824465 C115.100837,19.5713168 114.820576,19.2544681 114.285285,18.5945924 C113.991506,18.2289978 113.849122,18.0430411 113.569762,17.6639059 C112.60011,16.3351276 112.162145,15.6219924 111.419587,14.0648303 C111.206012,13.6197978 111.106884,13.3914141 110.914035,12.9256195 C110.566186,12.0779816 110.407581,11.6374627 110.133628,10.7158032 L111.626855,9.22092757 C113.102959,7.74230054 113.842814,7.00118162 115.318017,5.52255459 C115.647843,5.19306811 116.244413,2.07061946 116.572436,1.74203568 C116.572436,1.74203568 117.933192,4.24613297 118.413512,5.41423027" id="Fill-23" fill="#00B1E0"></path>
                        <path d="M38.2302093,4.56704378 C37.3858198,3.72121135 37.6057035,2.11710865 38.7168372,1.00317351 C39.8288721,-0.111664324 41.4311395,-0.331021081 42.2746279,0.515714054 L93.6913721,52.0185141 C94.5348605,52.8643465 94.3167791,54.4684492 93.2047442,55.583287 C92.0927093,56.6972222 90.4904419,56.9156762 89.6469535,56.0707465 L38.2302093,4.56704378 Z" id="Fill-25" fill="#D25E2A"></path>
                        <path d="M30.4674128,26.7476227 C34.1964244,24.4484389 36.0293895,23.2668011 38.977093,20.1840714 L46.5090116,27.7288605 C43.5595058,30.8097849 41.7265407,31.9923254 37.9975291,34.2906065 L30.4674128,26.7476227 Z" id="Fill-27" fill="#F26C33"></path>
                        <path d="M13.4535494,24.7888481 C17.1798576,22.4878589 19.2074738,21.5012049 22.9355843,19.2038265 C25.9490727,22.2215616 27.4549157,23.7299778 30.4675029,26.747713 C26.7384913,29.0459941 24.710875,30.0335508 20.9836657,32.3318319 C17.9719797,29.3149995 16.4661366,27.8065832 13.4535494,24.7888481" id="Fill-29" fill="#F26C33"></path>
                        <path d="M12.4820058,38.9058546 C15.4261047,35.8177086 17.2581686,34.6333627 20.9844767,32.3332762 C23.997064,35.3510114 25.502907,36.8603303 28.5154942,39.8780654 C24.789186,42.1772492 22.9580233,43.3615951 20.0130233,46.4497411 C17.000436,43.4320059 15.4936919,41.922687 12.4820058,38.9058546" id="Fill-31" fill="#F26C33"></path>
                        <path d="M28.5154942,39.8782459 C32.2418023,37.5772568 34.2685174,36.5897 37.9975291,34.2914189 C41.0101163,37.3082514 42.5159593,38.8175703 45.5285465,41.8344027 C41.800436,44.1335865 39.7728198,45.1211432 36.0465116,47.420327 C33.0339244,44.4025919 31.5280814,42.8959811 28.5154942,39.8782459" id="Fill-33" fill="#F26C33"></path>
                        <path d="M0.926125,42.3553524 L1.74798547,43.1786173 L5.44004942,46.8769903 L6.932375,48.3718659 C7.20722965,47.4502065 7.36493314,47.0105903 7.71188081,46.1629524 C7.90292733,45.6962551 8.00475872,45.4678714 8.2183343,45.0228389 C8.96089244,43.4647741 9.39705523,42.7525416 10.3685087,41.4237632 C10.6460669,41.0437254 10.7884506,40.8568659 11.0831308,40.4930768 C11.6166192,39.8313957 11.897782,39.5154497 12.4799331,38.90432 C11.8842645,38.3067308 11.5850785,38.0070335 10.9885087,37.4094443 L10.1666483,36.5861795 L7.2955436,33.7110714 C6.96661919,33.3815849 6.80260756,33.217293 6.47368314,32.8878065 L4.98225872,31.3929308 C4.3992064,32.0040605 4.11894477,32.3209092 3.5854564,32.9798822 C2.26435174,34.6173849 1.67499128,35.5083524 0.719758721,37.510547 C0.507084302,37.9564822 0.405252907,38.1839632 0.214206395,38.6506605 C-0.267014535,39.8187578 0.102462209,41.5302822 0.926125,42.3553524" id="Fill-35" fill="#F26C33"></path>
                        <path d="M20.470093,61.9318146 L19.6491337,61.1094524 C18.1721279,59.62902 17.4331744,58.8897065 15.9561686,57.4101768 L14.463843,55.9153011 C14.7386977,54.9927389 14.8945988,54.5531227 15.2433488,53.7063876 C15.4343953,53.2396903 15.5353256,53.0122092 15.748,52.5662741 C16.4914593,51.0082092 16.9285233,50.2959768 17.8990756,48.9671984 C18.1775349,48.5871605 18.3208198,48.4012038 18.6155,48.0356092 C19.1498895,47.3766362 19.4301512,47.0588849 20.0132035,46.4486578 C20.6097733,47.046247 20.9080581,47.3459443 21.5055291,47.9435335 C21.8344535,48.27302 21.9966628,48.4364092 22.3264884,48.764993 C23.4745698,49.9159389 24.0495116,50.4918632 25.197593,51.6428092 C25.5265174,51.9722957 25.6905291,52.1347822 26.0185523,52.4651714 C26.6160233,53.0627605 26.9143081,53.3624578 27.5108779,53.960047 C26.9287267,54.5711768 26.6484651,54.8880254 26.1140756,55.5479011 C24.7938721,57.1835984 24.2045116,58.0763714 23.2483779,60.0776632 C23.0366047,60.5235984 22.9338721,60.7519822 22.7419244,61.2177768 C22.2616047,62.3867768 21.2937558,62.7577876 20.470093,61.9318146" id="Fill-37" fill="#F26C33"></path>
                        <path d="M59.0933895,24.5358205 C58.7644651,24.2063341 57.6335058,23.7820638 57.3045814,23.45348 C55.8266744,21.9730476 55.0886221,21.2337341 53.6116163,19.7533016 C53.0150465,19.1557124 52.7158605,18.8569178 52.1192907,18.2584259 C51.8453372,19.1800854 51.6885349,19.621507 51.3397849,20.4682422 C51.1487384,20.9349395 51.046907,21.1624205 50.8342326,21.6083557 C50.0916744,23.1646151 49.6537093,23.878653 48.683157,25.2065286 C48.4055988,25.5874692 48.2632151,25.7734259 47.9685349,26.1372151 C47.4341453,26.7988962 47.1538837,27.1148422 46.5708314,27.7268746 C47.1683023,28.3244638 47.4674884,28.6232584 48.0640581,29.2217503 C48.3929826,29.5512368 48.5569942,29.7155286 48.8859186,30.0459178 C50.034,31.1959611 50.6089419,31.7709827 51.7570233,32.9210259 C52.0859477,33.2505124 52.2490581,33.4148043 52.5788837,33.7442908 C53.1754535,34.34188 53.4746395,34.6406746 54.0712093,35.2382638 C54.6542616,34.6271341 54.9345233,34.3102854 55.469814,33.6504097 C56.7900174,32.0138097 57.3793779,31.1237449 58.3337093,29.1206476 C58.548186,28.6756151 58.6482151,28.4472314 58.8392616,27.9814368 C59.3186802,26.8124368 59.9170523,25.3608908 59.0933895,24.5358205" id="Fill-39" fill="#F26C33"></path>
                        <path d="M38.1509971,1.74167459 C38.4790203,2.07025838 39.0755901,5.19270703 39.4054157,5.52219351 C40.8806192,7.00082054 41.6204738,7.74193946 43.0965785,9.22056649 C43.6931483,9.81905838 43.9923343,10.117853 44.5898052,10.7154422 C44.3149506,11.6371016 44.1572471,12.0776205 43.8084971,12.9261611 C43.6165494,13.391053 43.5174215,13.6194368 43.3038459,14.0644692 C42.5612878,15.6216314 42.1233227,16.3347665 41.1527703,17.6644476 C40.874311,18.0435827 40.7319273,18.2295395 40.4372471,18.5942314 C39.9028576,19.254107 39.6225959,19.5709557 39.0395436,20.1829881 L37.547218,18.6872097 L36.7262587,17.8648476 C35.5790785,16.7148043 35.0041366,16.1397827 33.8551541,14.9897395 C33.5271308,14.660253 33.3631192,14.4959611 33.0332936,14.1664746 L31.5418692,12.6715989 C32.1249215,12.0604692 32.4051831,11.7427178 32.9404738,11.0828422 C34.2615785,9.44624216 34.8500378,8.5561773 35.8043692,6.5539827 C36.0188459,6.10804757 36.118875,5.87966378 36.3099215,5.41386919 C36.7902413,4.24577189 38.1509971,1.74167459 38.1509971,1.74167459" id="Fill-41" fill="#F26C33"></path>
                        <path d="M111.349387,123.409028 C102.773922,123.409028 95.7971192,116.422109 95.7971192,107.83199 C95.7971192,99.1191038 102.847817,95.7520227 106.637206,93.9439092 C107.308573,93.6243524 107.958311,93.3192389 108.540462,92.9924605 L109.272206,92.6458227 C117.583631,89.4042173 126.481712,78.6106011 126.481712,67.7086605 C126.481712,62.6914389 122.405753,58.6085146 117.394387,58.6085146 C112.384823,58.6085146 108.308863,62.6914389 108.308863,67.7086605 C108.308863,70.9087416 105.719823,73.5022065 102.526102,73.5022065 C99.3323808,73.5022065 96.7433401,70.9087416 96.7433401,67.7086605 C96.7433401,56.3021092 106.007294,47.0232281 117.394387,47.0232281 C128.783282,47.0232281 138.048137,56.3021092 138.048137,67.7086605 C138.048137,83.9103686 125.804038,98.4312443 113.837497,103.295006 C113.142701,103.668725 112.388427,104.031612 111.611625,104.402623 C107.728515,106.256774 107.362642,106.815547 107.362642,107.83199 C107.362642,110.033682 109.151451,111.823742 111.349387,111.823742 C114.543108,111.823742 117.132148,114.417206 117.132148,117.616385 C117.132148,120.816466 114.543108,123.409028 111.349387,123.409028" id="Fill-43" fill="#CB9F2C"></path>
                        <path d="M42.0170756,123.409028 C38.8233547,123.409028 36.234314,120.816466 36.234314,117.616385 C36.234314,114.417206 38.8233547,111.823742 42.0170756,111.823742 C44.2150116,111.823742 46.0038198,110.033682 46.0038198,107.83199 C46.0038198,106.815547 45.6379477,106.256774 41.7548372,104.402623 C40.9780349,104.031612 40.2237616,103.668725 39.5289651,103.295006 C27.5624244,98.4312443 15.3192267,83.9103686 15.3192267,67.7086605 C15.3192267,56.3021092 24.5831802,47.0232281 35.9720756,47.0232281 C47.3591686,47.0232281 56.6231221,56.3021092 56.6231221,67.7086605 C56.6231221,70.9087416 54.0340814,73.5022065 50.8403605,73.5022065 C47.6466395,73.5022065 45.0575988,70.9087416 45.0575988,67.7086605 C45.0575988,62.6914389 40.9825407,58.6085146 35.9720756,58.6085146 C30.9607093,58.6085146 26.88475,62.6914389 26.88475,67.7086605 C26.88475,78.6106011 35.7828314,89.4042173 44.0942558,92.6458227 L44.8269012,92.9924605 C45.4081512,93.3192389 46.0587907,93.6243524 46.7292558,93.9439092 C50.5186453,95.7520227 57.569343,99.1191038 57.569343,107.83199 C57.569343,116.422109 50.5925407,123.409028 42.0170756,123.409028" id="Fill-45" fill="#CB9F2C"></path>
                        <path d="M103.371843,54.4254805 C103.371843,54.4254805 98.4713198,55.8255724 77.0317558,55.8255724 C55.593093,55.8255724 49.5913488,54.4254805 49.5913488,54.4254805 C46.7635,54.4254805 44.4952733,57.7022914 44.5520465,60.3002697 C44.6061163,62.8937346 44.7034419,67.2140697 44.7647209,70.0476535 L44.7800407,70.7075292 C44.8395174,73.541113 45.0720174,78.1439941 45.2937035,80.9676481 C45.2937035,80.9676481 45.8515233,88.0385184 47.4591977,92.8724914 C49.4471628,98.8456751 52.2912326,103.56681 54.9298372,107.278724 C56.982686,110.174594 59.2554186,112.45121 61.4082965,114.215994 C66.0357674,118.017275 66.7521919,118.011859 66.7521919,118.011859 C68.9753605,118.790891 71.5157384,121.742729 71.5157384,124.57541 L71.5157384,144.086426 C71.5157384,146.92001 68.1571047,149.603745 65.3607965,150.046972 L47.4871337,155.151756 L47.5781512,159.84581 C47.5781512,159.84581 59.700593,162.692935 78.4628023,162.645994 C107.387424,162.573778 106.98911,159.366475 106.98911,159.366475 L107.077424,155.063291 L88.9838779,149.858308 C86.1920756,149.410567 85.0331802,146.879389 85.0331802,144.045805 L85.0331802,124.634086 C85.0331802,121.801405 85.6504767,118.973237 87.72225,118.348567 C87.72225,118.348567 87.1842558,118.348567 91.6323953,114.813583 C93.92225,112.994637 96.1291977,110.541994 98.3568721,107.278724 C100.854895,103.621875 103.44664,98.9467778 105.42289,93.0051886 C107.037773,88.1585778 108.241727,80.9261238 108.241727,80.9261238 C108.508471,78.1069832 109.364576,73.4869508 109.364576,70.6542697 L109.364576,70.4999076 C109.364576,67.67174 108.934721,63.3414751 108.993297,60.5855238 C109.052773,57.8331832 106.200593,54.4254805 103.371843,54.4254805" id="Fill-47" fill="#FFC82C"></path>
                        <path d="M44.6290058,62.8857005 C44.6290058,62.8857005 44.6371163,63.4535005 44.652436,64.517787 C44.6758663,65.5811708 44.7623779,67.1410411 44.8777267,69.1197654 C45.1219419,73.0736032 45.7104012,78.7245222 47.1216221,85.3268897 C47.84075,88.62356 48.804093,92.1495168 50.1360116,95.7431762 C51.4805465,99.3296141 53.2630465,102.967506 55.6322035,106.322852 C58.0121744,109.662852 61.1130756,112.621911 64.8348779,114.621398 C68.5467674,116.640744 72.8597326,117.573236 77.1988314,117.580457 C81.5487442,117.649063 85.8626105,116.764414 89.6015349,114.80916 C91.462436,113.823409 93.1710407,112.593025 94.7165349,111.202863 C96.2476105,109.794646 97.5948488,108.209501 98.7771744,106.537695 C101.118395,103.170614 102.821593,99.4957114 104.102145,95.8912195 C105.363773,92.273187 106.242407,88.7246627 106.888541,85.4144519 C108.142058,78.7804897 108.594442,73.1178357 108.742233,69.1585816 C108.808919,67.1780519 108.85668,65.6172789 108.853977,64.5529924 C108.844064,63.4887059 108.838657,62.9200032 108.838657,62.9200032 C108.838657,62.9200032 108.897233,63.4859978 109.008076,64.5466735 C109.099994,65.6082519 109.242378,67.1690249 109.296448,69.1612897 C109.361331,71.1526519 109.382058,73.5755059 109.291041,76.356733 C109.200023,79.1370573 108.993657,82.2793654 108.502523,85.68436 C108.024907,89.0875492 107.310285,92.7687708 106.119849,96.5628303 C104.930314,100.34696 103.30732,104.28816 100.845343,107.960355 C98.4031919,111.614495 95.0806047,115.032128 90.8856919,117.244652 C86.7133081,119.470717 81.8839767,120.482646 77.1781047,120.429387 C72.4686279,120.391474 67.6573198,119.32809 63.5254884,117.037933 C59.3639186,114.784787 56.0638605,111.37889 53.5847616,107.759052 C51.0984535,104.114841 49.4024651,100.21336 48.1417384,96.4527005 C46.877407,92.6857222 46.0825814,89.0234573 45.5238605,85.6329059 C44.9525233,82.2405492 44.6713605,79.1054627 44.5118547,76.3287492 C44.3514477,73.5502303 44.3117965,71.1282789 44.3271163,69.1351114 C44.3316221,67.1428465 44.4352558,65.5784627 44.4992384,64.5150789 C44.5839477,63.4516951 44.6290058,62.8857005 44.6290058,62.8857005" id="Fill-49" fill="#CB9F2C"></path>
                        <path d="M101.000073,54.4254805 C101.000073,54.4254805 96.7042297,55.8255724 77.912282,55.8255724 C59.1203343,55.8255724 53.8602471,54.4254805 53.8602471,54.4254805 C53.8602471,54.4254805 52.4967878,58.1337832 77.2382122,58.1337832 C101.978735,58.1337832 101.000073,54.4254805 101.000073,54.4254805" id="Fill-51" fill="#FBE6A7"></path>
                        <path d="M117.394387,47.0231378 C128.356131,47.0231378 137.347933,55.6213811 138.004881,66.4384676 C138.031916,65.9013595 138.048137,65.3624459 138.048137,64.821727 C138.048137,53.4151757 128.783282,44.1353919 117.394387,44.1353919 C106.007294,44.1353919 96.7433401,53.4151757 96.7433401,64.821727 C96.7433401,65.1602405 96.7784855,65.489727 96.8343576,65.8110892 C97.7940959,55.2909919 106.646218,47.0231378 117.394387,47.0231378" id="Fill-53" fill="#FBE6A7"></path>
                        <path d="M111.349387,108.936718 C109.775956,108.936718 108.425113,108.011448 107.777177,106.682669 C107.429328,107.069929 107.362642,107.412956 107.362642,107.83181 C107.362642,110.033502 109.151451,111.823561 111.349387,111.823561 C114.044765,111.823561 116.303078,113.673199 116.943805,116.173685 C117.062759,115.710599 117.132148,115.229458 117.132148,114.729361 C117.132148,111.530183 114.544009,108.936718 111.349387,108.936718" id="Fill-55" fill="#FBE6A7"></path>
                        <path d="M106.636756,93.9442703 C107.308122,93.6247135 107.958762,93.3196 108.540012,92.9919189 L109.272657,92.6461838 C117.58318,89.4045784 126.481262,78.6109622 126.481262,67.7090216 C126.481262,67.3082216 126.447017,66.9164486 126.397453,66.5291892 C125.539547,76.8317351 117.14882,86.6865405 109.272657,89.7584378 L108.540012,90.1050757 C107.958762,90.4309514 107.308122,90.7369676 106.636756,91.057427 C102.848267,92.8655405 95.7975698,96.2308162 95.7975698,104.945508 C95.7975698,105.434773 95.826407,105.916816 95.870564,106.394346 C96.5987035,98.7430378 103.065448,95.6494757 106.636756,93.9442703" id="Fill-57" fill="#FBE6A7"></path>
                        <path d="M42.0170756,111.823832 C44.2150116,111.823832 46.0038198,110.033772 46.0038198,107.832081 C46.0038198,107.412324 45.9371337,107.069297 45.590186,106.68294 C44.9413488,108.010816 43.5905058,108.936989 42.0170756,108.936989 C38.8233547,108.936989 36.234314,111.530454 36.234314,114.729632 C36.234314,115.228826 36.3037035,115.71087 36.422657,116.173054 C37.0633837,113.67347 39.3216977,111.823832 42.0170756,111.823832" id="Fill-59" fill="#FBE6A7"></path>
                        <path d="M46.7297064,91.0572465 C46.0583401,90.7376897 45.4077006,90.4316735 44.8273517,90.1048951 L44.0938052,89.75916 C36.2176424,86.68636 27.8269157,76.8315546 26.9699099,66.5290086 C26.9194448,66.9162681 26.8852006,67.3080411 26.8852006,67.7088411 C26.8852006,78.6107816 35.783282,89.4043978 44.0938052,92.6460032 L44.8273517,92.9926411 C45.4077006,93.3194195 46.0583401,93.624533 46.7297064,93.9440897 C50.3019157,95.6492951 56.7677587,98.74376 57.4958983,106.394165 C57.5400552,105.916636 57.5688924,105.434592 57.5688924,104.945328 C57.5688924,96.2306357 50.5181948,92.86536 46.7297064,91.0572465" id="Fill-61" fill="#FBE6A7"></path>
                        <path d="M35.9720756,47.0231378 C46.7202442,47.0231378 55.5723663,55.2909919 56.5321047,65.8110892 C56.5879767,65.489727 56.6231221,65.1602405 56.6231221,64.821727 C56.6231221,53.4151757 47.3591686,44.1353919 35.9720756,44.1353919 C24.5831802,44.1353919 15.3192267,53.4151757 15.3192267,64.821727 C15.3192267,65.3624459 15.3354477,65.9013595 15.3615814,66.4384676 C16.0194302,55.6213811 25.0103314,47.0231378 35.9720756,47.0231378" id="Fill-63" fill="#FBE6A7"></path>
                        <path d="M54.6632733,155.482326 C54.6632733,155.482326 64.7076337,156.036585 77.0049012,156.036585 C91.1621686,156.036585 99.7430407,155.482326 99.7430407,155.482326 C99.7430407,155.482326 95.0299593,157.701169 77.58525,157.701169 C59.6764419,157.701169 54.6632733,155.482326 54.6632733,155.482326" id="Fill-65" fill="#FBDC7E"></path>
                        <path d="M77.8752442,125.446338 C77.8752442,125.446338 77.9996047,125.826376 78.156407,126.491668 C78.3159128,127.157862 78.5222791,128.107505 78.6889942,129.248522 C79.0674826,131.528749 79.2936744,134.570857 79.2981802,137.612965 C79.2972791,140.65417 79.0728895,143.695376 78.6925988,145.976505 C78.5258837,147.117522 78.3177151,148.068068 78.1582093,148.733359 C78.0005058,149.397749 77.8752442,149.778689 77.8752442,149.778689 C77.8752442,149.778689 77.7508837,149.397749 77.5931802,148.733359 C77.4327733,148.068068 77.2255058,147.117522 77.0587907,145.976505 C76.6785,143.695376 76.4541105,140.65417 76.4523081,137.612965 C76.4577151,134.570857 76.683907,131.528749 77.0623953,129.248522 C77.2291105,128.107505 77.4354767,127.157862 77.5940814,126.491668 C77.7517849,125.826376 77.8752442,125.446338 77.8752442,125.446338" id="Fill-67" fill="#FBDC7E"></path>
                        <path d="M111.349387,120.522004 C102.773922,120.522004 95.7971192,113.535085 95.7971192,104.944966 C95.7971192,96.2311773 102.847817,92.8649989 106.637206,91.0568854 C107.308573,90.7373286 107.958311,90.4322151 108.540462,90.1054368 L109.272206,89.7587989 C117.583631,86.5171935 126.481712,75.7235773 126.481712,64.8216368 C126.481712,59.8035124 122.405753,55.7205881 117.394387,55.7205881 C112.384823,55.7205881 108.308863,59.8035124 108.308863,64.8216368 C108.308863,68.0217178 105.719823,70.61428 102.526102,70.61428 C99.3323808,70.61428 96.7433401,68.0217178 96.7433401,64.8216368 C96.7433401,53.4150854 106.007294,44.1353016 117.394387,44.1353016 C128.783282,44.1353016 138.048137,53.4150854 138.048137,64.8216368 C138.048137,81.0233449 125.804038,95.5442205 113.837497,100.40708 C113.142701,100.781702 112.388427,101.144588 111.611625,101.515599 C107.728515,103.368848 107.362642,103.927621 107.362642,104.944966 C107.362642,107.145756 109.151451,108.936718 111.349387,108.936718 C114.543108,108.936718 117.132148,111.530183 117.132148,114.729361 C117.132148,117.929442 114.543108,120.522004 111.349387,120.522004" id="Fill-69" fill="#FFC82C"></path>
                        <path d="M42.0170756,120.522004 C38.8233547,120.522004 36.234314,117.929442 36.234314,114.729361 C36.234314,111.530183 38.8233547,108.936718 42.0170756,108.936718 C44.2150116,108.936718 46.0038198,107.145756 46.0038198,104.944966 C46.0038198,103.927621 45.6379477,103.368848 41.7548372,101.515599 C40.9780349,101.144588 40.2237616,100.781702 39.5289651,100.40708 C27.5624244,95.5442205 15.3192267,81.0233449 15.3192267,64.8216368 C15.3192267,53.4150854 24.5831802,44.1353016 35.9720756,44.1353016 C47.3591686,44.1353016 56.6231221,53.4150854 56.6231221,64.8216368 C56.6231221,68.0217178 54.0340814,70.61428 50.8403605,70.61428 C47.6466395,70.61428 45.0575988,68.0217178 45.0575988,64.8216368 C45.0575988,59.8035124 40.9825407,55.7205881 35.9720756,55.7205881 C30.9607093,55.7205881 26.88475,59.8035124 26.88475,64.8216368 C26.88475,75.7235773 35.7828314,86.5171935 44.0942558,89.7587989 L44.8269012,90.1054368 C45.4081512,90.4322151 46.0587907,90.7373286 46.7292558,91.0568854 C50.5186453,92.8649989 57.569343,96.2311773 57.569343,104.944966 C57.569343,113.535085 50.5925407,120.522004 42.0170756,120.522004" id="Fill-71" fill="#FFC82C"></path>
                        <path d="M51.1827122,62.5736362 C51.1827122,62.5736362 51.3386134,65.8982903 51.8865203,70.8117011 C51.9496017,71.4264416 52.0334099,72.0646524 52.1217238,72.7236254 C52.1974215,73.3853065 52.2875378,74.0659443 52.3911715,74.7655389 C52.4848924,75.4651335 52.5921308,76.1818795 52.7218983,76.9121659 C52.8408517,77.6433551 52.9480901,78.3916957 53.0958808,79.1463551 C53.3563169,80.6610903 53.6978576,82.2119335 54.0412006,83.7835389 C54.3872471,85.3569497 54.8207064,86.9312632 55.2649797,88.5019659 C55.5010843,89.2746795 55.7362878,90.0482957 55.9705901,90.8183011 C56.2463459,91.5955281 56.5202994,92.370047 56.7924506,93.1373443 C57.082625,93.8793659 57.3709971,94.6141659 57.6557645,95.3408416 C57.9531483,96.0648092 58.2820727,96.7716254 58.5866657,97.47122 C58.9182936,98.1608849 59.2436134,98.8379119 59.5635262,99.5004957 C59.8915494,100.159469 60.2402994,100.790458 60.5656192,101.41242 C60.9152703,102.021744 61.2550087,102.61482 61.583032,103.188036 C61.9308808,103.75042 62.2670145,104.29475 62.5896308,104.817415 C63.2673052,105.840177 63.8954157,106.778988 64.4937878,107.58149 C65.0939622,108.38309 65.6238459,109.081782 66.0897471,109.632431 C67.0071308,110.747269 67.5955901,111.335831 67.5955901,111.335831 C67.5955901,111.335831 67.428875,111.211258 67.1179738,110.977458 C66.8133808,110.734631 66.3564913,110.385285 65.8239041,109.887896 C64.7434099,108.909366 63.2691076,107.418101 61.7200087,105.437571 C61.3424215,104.935669 60.9495145,104.412101 60.5430901,103.870479 C60.1637006,103.308096 59.7716948,102.725852 59.368875,102.129166 C58.6019855,100.908712 57.8152703,99.6034038 57.1015494,98.1978957 C56.7582064,97.4883714 56.3932355,96.7779443 56.0534971,96.0359227 C55.7335843,95.2866795 55.3812297,94.5302146 55.0766366,93.7602092 C54.7945727,92.99562 54.5098052,92.2256146 54.2250378,91.4519984 C53.9682064,90.6494957 53.7095727,89.8424795 53.4518401,89.0345605 C52.9877413,87.4214308 52.5849215,85.7920524 52.2469855,84.17802 C51.8964331,82.5648903 51.6423052,80.9616903 51.4332355,79.4081389 C51.2097471,77.8572957 51.0628576,76.3488795 50.9682355,74.9180957 C50.8501831,73.4882146 50.8033227,72.1323551 50.7862006,70.8821119 C50.7348343,68.3825281 50.8366657,66.3008957 50.9466076,64.8493497 C51.0583517,63.3969011 51.1827122,62.5736362 51.1827122,62.5736362" id="Fill-73" fill="#FBDC7E"></path>
                        <path d="M102.861424,62.5736362 C102.861424,62.5736362 102.985785,63.3969011 103.097529,64.8493497 C103.20657,66.3008957 103.309302,68.3825281 103.257936,70.8821119 C103.240814,72.1323551 103.193953,73.4882146 103.075901,74.9180957 C102.981279,76.3488795 102.83439,77.8572957 102.610901,79.4081389 C102.401831,80.9616903 102.147703,82.5648903 101.797151,84.17802 C101.459215,85.7920524 101.056395,87.4214308 100.592297,89.0345605 C100.334564,89.8424795 100.07593,90.6494957 99.8190988,91.4519984 C99.5343314,92.2256146 99.2486628,92.99562 98.9675,93.7602092 C98.662907,94.5302146 98.3105523,95.2866795 97.9906395,96.0359227 C97.6509012,96.7779443 97.2859302,97.4883714 96.9425872,98.1978957 C96.2288663,99.6034038 95.4421512,100.908712 94.6752616,102.129166 C94.2724419,102.725852 93.880436,103.308096 93.5010465,103.870479 C93.0946221,104.412101 92.7017151,104.935669 92.3241279,105.437571 C90.7750291,107.418101 89.3007267,108.909366 88.2202326,109.887896 C87.6876453,110.385285 87.2298547,110.734631 86.9261628,110.977458 C86.6152616,111.211258 86.4485465,111.335831 86.4485465,111.335831 C86.4485465,111.335831 87.0370058,110.747269 87.9543895,109.632431 C88.4202907,109.081782 88.9501744,108.38309 89.5503488,107.58149 C90.1487209,106.778988 90.7768314,105.840177 91.4545058,104.817415 C91.7762209,104.29475 92.1123547,103.75042 92.4611047,103.188036 C92.7891279,102.61482 93.1288663,102.021744 93.4785174,101.41242 C93.8038372,100.790458 94.151686,100.159469 94.4806105,99.5004957 C94.8005233,98.8379119 95.125843,98.1608849 95.4574709,97.47122 C95.762064,96.7716254 96.0909884,96.0648092 96.3883721,95.3408416 C96.6731395,94.6141659 96.9615116,93.8793659 97.251686,93.1373443 C97.5238372,92.370047 97.7977907,91.5955281 98.0735465,90.8183011 C98.3078488,90.0482957 98.5430523,89.2746795 98.779157,88.5019659 C99.2234302,86.9312632 99.6559884,85.3569497 100.002035,83.7835389 C100.345378,82.2119335 100.68782,80.6610903 100.948256,79.1463551 C101.096047,78.3916957 101.203285,77.6433551 101.322238,76.9121659 C101.451105,76.1818795 101.559244,75.4651335 101.652965,74.7655389 C101.756599,74.0659443 101.845814,73.3853065 101.922413,72.7236254 C102.010727,72.0646524 102.094535,71.4264416 102.157616,70.8117011 C102.705523,65.8982903 102.861424,62.5736362 102.861424,62.5736362" id="Fill-75" fill="#FBDC7E"></path>
                        <path d="M41.8507209,46.9464984 C41.8507209,46.9464984 40.9162151,46.7948443 39.2733953,46.762347 C37.6368837,46.7253362 35.274936,46.7876227 32.562436,47.4005578 C31.2124942,47.7174065 29.7787442,48.1723686 28.3675233,48.8593254 C26.9563023,49.5426714 25.5856337,50.4787741 24.3735698,51.6513849 C23.162407,52.8258011 22.138686,54.2601957 21.369093,55.8561741 C20.5859826,57.4467362 20.0560988,59.1934659 19.7145581,60.98172 C19.3883372,62.7690714 19.237843,64.6205146 19.237843,66.4087686 C19.2423488,68.1636227 19.5784826,69.9040335 19.9506628,71.56952 C20.7815349,74.8968822 22.027843,77.9110065 23.1921453,80.4503092 C24.3699651,82.9878065 25.4729884,85.0640227 26.2642093,86.5101524 C27.0590349,87.9553795 27.5366512,88.7768389 27.5366512,88.7768389 C27.5366512,88.7768389 26.866186,88.1016173 25.8298488,86.79992 C24.795314,85.5000281 23.3822907,83.5799795 21.9548488,81.0939362 C20.5256047,78.6160173 19.0576105,75.5603686 18.1384244,72.0244822 C17.682436,70.257893 17.3841512,68.3676335 17.4021744,66.4051578 C17.4156919,64.4787903 17.6337733,62.5587416 18.0257791,60.6432065 C18.4421163,58.7385038 19.0467965,56.8527578 19.9668837,55.1385254 C20.8779593,53.4251957 22.0710988,51.887893 23.4489767,50.6557038 C24.8223488,49.4135849 26.3795581,48.5063686 27.9160407,47.8582281 C29.4561279,47.2082822 30.9863023,46.8192173 32.407436,46.5998605 C35.2569128,46.1539254 37.6504012,46.3073849 39.2923198,46.4942443 C40.937843,46.7000605 41.8507209,46.9464984 41.8507209,46.9464984" id="Fill-77" fill="#FBDC7E"></path>
                        <path d="M111.993538,46.9464984 C111.993538,46.9464984 112.906416,46.7000605 114.551939,46.4942443 C116.193858,46.3073849 118.587346,46.1539254 121.436823,46.5998605 C122.857956,46.8192173 124.388131,47.2082822 125.928218,47.8582281 C127.464701,48.5063686 129.02191,49.4135849 130.395282,50.6557038 C131.77316,51.887893 132.966299,53.4251957 133.878276,55.1385254 C134.797462,56.8527578 135.402142,58.7385038 135.81848,60.6432065 C136.211387,62.5587416 136.428567,64.4787903 136.442084,66.4051578 C136.460108,68.3676335 136.161823,70.257893 135.705834,72.0244822 C134.786648,75.5603686 133.318654,78.6160173 131.890311,81.0939362 C130.461968,83.5799795 129.049846,85.5000281 128.01441,86.79992 C126.978974,88.1016173 126.308509,88.7768389 126.308509,88.7768389 C126.308509,88.7768389 126.785224,87.9553795 127.580049,86.5101524 C128.37127,85.0640227 129.474294,82.9878065 130.652113,80.4503092 C131.816416,77.9110065 133.062724,74.8968822 133.894497,71.56952 C134.266677,69.9040335 134.60191,68.1636227 134.606416,66.4087686 C134.606416,64.6205146 134.455922,62.7690714 134.129701,60.98172 C133.789061,59.1934659 133.258276,57.4467362 132.475166,55.8561741 C131.705573,54.2601957 130.681852,52.8258011 129.47159,51.6513849 C128.258625,50.4787741 126.887956,49.5426714 125.476735,48.8593254 C124.065515,48.1723686 122.631765,47.7174065 121.281823,47.4005578 C118.569323,46.7876227 116.207375,46.7253362 114.570863,46.762347 C112.928044,46.7948443 111.993538,46.9464984 111.993538,46.9464984" id="Fill-79" fill="#FBDC7E"></path>
                        <path d="M106.46959,116.420214 C106.46959,116.420214 106.998573,116.769559 107.68616,117.100851 C107.859183,117.182997 108.049328,117.258824 108.240375,117.336457 C108.434125,117.411381 108.632381,117.485403 108.842352,117.545884 C109.041509,117.626224 109.269503,117.6515 109.47677,117.724619 C109.702962,117.754408 109.916538,117.826624 110.147235,117.849192 C110.377933,117.872662 110.60052,117.933143 110.838427,117.939462 C111.071828,117.945781 111.300724,118.005359 111.535026,117.999041 C111.999125,118.037857 112.450608,118.048689 112.860637,118.081186 C113.268863,118.117295 113.622119,118.113684 113.882555,118.153403 C114.142991,118.184997 114.301596,118.217495 114.301596,118.217495 C114.301596,118.217495 114.199765,118.334846 114.001509,118.511776 C113.799648,118.67697 113.516683,118.950489 113.114765,119.142765 C112.721858,119.367538 112.233427,119.568841 111.667497,119.679873 C111.39084,119.757505 111.085346,119.764727 110.779852,119.782781 C110.474358,119.817084 110.156247,119.752992 109.84084,119.725008 C109.527235,119.677165 109.215433,119.576062 108.917148,119.479473 C108.626073,119.34497 108.333195,119.23123 108.088078,119.047981 C107.574416,118.726619 107.193224,118.290614 106.941799,117.892522 C106.679561,117.499846 106.566916,117.112586 106.509241,116.8499 C106.456974,116.579992 106.46959,116.420214 106.46959,116.420214" id="Fill-81" fill="#FBDC7E"></path>
                        <path d="M47.1609128,116.370836 C47.1609128,116.370836 47.1645174,116.529711 47.0969302,116.796911 C47.023936,117.055987 46.8887616,117.436025 46.6048953,117.813355 C46.3309419,118.195198 45.9263198,118.608636 45.3937326,118.900209 C45.1378023,119.069014 44.8404186,119.165603 44.5421337,119.282955 C44.2384419,119.362392 43.9212326,119.445441 43.6058256,119.474328 C43.2895174,119.484257 42.9678023,119.530295 42.6641105,119.477938 C42.3604186,119.442733 42.0558256,119.41836 41.7845756,119.324479 C41.2258547,119.180949 40.7491395,118.951663 40.3706512,118.704322 C39.9795465,118.489479 39.7128023,118.199711 39.5199535,118.023684 C39.3334128,117.835019 39.2378895,117.712252 39.2378895,117.712252 C39.2378895,117.712252 39.3991977,117.688782 39.6605349,117.672533 C39.9236744,117.64816 40.2751279,117.67163 40.6842558,117.659895 C41.0960872,117.649965 41.5475698,117.666214 42.0125698,117.654479 C42.2468721,117.673436 42.4784709,117.628301 42.7118721,117.633717 C42.9497791,117.640938 43.1750698,117.594901 43.4075698,117.584971 C43.6391686,117.575041 43.8563488,117.515463 44.0834419,117.499214 C44.294314,117.43783 44.5241105,117.426095 44.7277733,117.35749 C44.9404477,117.308744 45.1432093,117.246457 45.3396628,117.181463 C45.5352151,117.115565 45.7298663,117.050571 45.9073953,116.979257 C46.613907,116.688587 47.1609128,116.370836 47.1609128,116.370836" id="Fill-83" fill="#FBDC7E"></path>
                        <path d="M96.7204506,80.1595486 L87.2149855,87.5373378 L91.3071657,98.8662568 C91.5351599,99.5017595 91.3314971,100.212186 90.7980087,100.626527 C90.5321657,100.836857 90.2131541,100.944278 89.8932413,100.955111 C89.5733285,100.965041 89.2480087,100.879284 88.9686483,100.686105 L79.0035901,93.9149324 L69.4963227,101.312581 C68.961032,101.728727 68.2229797,101.750392 67.6678634,101.372159 C67.1091424,100.991219 64.1019622,98.2840135 64.2885029,97.6367757 L70.3938808,88.0870838 L60.430625,81.3420892 C59.8728052,80.9674676 56.8719331,78.5193378 57.0584738,77.8666838 C57.2468169,77.2185432 60.5982413,79.1629649 61.2732122,79.1403973 L73.306439,78.7486243 L76.6425436,66.8356568 C76.8308866,66.1902243 74.917718,63.0957595 75.5917878,63.0731919 C76.2667587,63.051527 79.3757703,66.1866135 79.6028634,66.8230189 L83.7049564,78.4092081 L93.0364971,75.4826459 C94.7784448,75.3165486 97.0124273,78.0878459 97.2404215,78.7215432 C97.4711192,79.3597541 97.253939,79.7488189 96.7204506,80.1595486" id="Fill-85" fill="#CB9F2C"></path>
                        <path d="M94.0213779,77.6260232 L84.5150116,85.0038124 L88.6071919,96.3327314 C88.8360872,96.9682341 88.6315233,97.6786611 88.098936,98.0930016 C87.833093,98.3033314 87.5131802,98.410753 87.1941686,98.4206827 C86.8742558,98.4315151 86.548936,98.3457584 86.2695756,98.15258 L76.3045174,91.381407 L66.7963488,98.7790557 C66.2619593,99.1952016 65.523907,99.2168665 64.9678895,98.8377314 C64.4100698,98.4576935 64.1586453,97.7635151 64.345186,97.1162773 L67.693907,85.5535584 L57.7306512,78.8085638 C57.1737326,78.4339422 56.9313198,78.0593205 57.1178605,77.4075692 C57.3062035,76.7603314 57.8991686,76.6294395 58.5732384,76.6068719 L70.6073663,76.2150989 L73.9434709,64.3021314 C74.1309128,63.6566989 74.7085581,63.0392503 75.3826279,63.0166827 C76.0566977,62.9950178 76.6757965,63.6530881 76.9037907,64.2885908 L81.0049826,75.8756827 L93.036407,75.483007 C93.7104767,75.4622449 94.3133547,75.5543205 94.5404477,76.1880178 C94.7711453,76.8262286 94.5539651,77.2152935 94.0213779,77.6260232" id="Fill-87" fill="#FFD253"></path>
                        <path d="M65.575814,98.1245962 L68.9245349,86.5618773 L67.652093,85.7006989 L64.3457267,97.1162773 C64.159186,97.7635151 64.4088081,98.4576935 64.9675291,98.8377314 C65.1630814,98.9704286 65.3811628,99.0363259 65.60375,99.0706286 C65.4992151,98.7727368 65.4829942,98.444153 65.575814,98.1245962" id="Fill-89" fill="#FFF3D4"></path>
                        <path d="M82.2349797,76.8846335 L94.2664041,76.4919578 C94.3826541,76.4892497 94.4943983,76.4946659 94.6061424,76.5000822 C94.592625,76.4007849 94.581811,76.3023903 94.5403576,76.1886497 C94.3132645,75.5540497 93.7103866,75.4610714 93.0363169,75.4827362 L81.8673052,75.8474281 L82.2349797,76.8846335 Z" id="Fill-91" fill="#FFF3D4"></path>
                        <path d="M58.3480378,78.4167005 C58.5363808,77.76856 59.1284448,77.6376681 59.8034157,77.6151005 L71.8366424,77.2233276 L75.1727471,65.3112627 C75.3610901,64.666733 75.9387355,64.0483816 76.6137064,64.0267168 C76.6749855,64.0249114 76.7353634,64.0330357 76.7957413,64.0420627 C76.5145785,63.4950249 75.9702762,62.9985384 75.382718,63.0165924 C74.7086483,63.03916 74.1310029,63.6566086 73.943561,64.3020411 L70.6074564,76.2150086 L58.5733285,76.6067816 C57.8992587,76.6284465 57.3062936,76.7602411 57.1179506,77.4074789 C56.9314099,78.0592303 57.1738227,78.4338519 57.7307413,78.8084735 L58.4093169,79.2670465 C58.2795494,79.0341492 58.2471076,78.7669492 58.3480378,78.4167005" id="Fill-93" fill="#FFF3D4"></path>
                    </g>
                </g>
            </g>
        </g>
    </g>
</svg>