<?xml version="1.0" encoding="UTF-8"?>
<svg width="160px" height="197px" viewBox="0 0 160 197" version="1.1" xmlns="http://www.w3.org/2000/svg" xmlns:xlink="http://www.w3.org/1999/xlink">
    <!-- Generator: Sketch 46.2 (44496) - http://www.bohemiancoding.com/sketch -->
    <title>Group 2</title>
    <desc>Created with Sketch.</desc>
    <defs></defs>
    <g id="Symbols" stroke="none" stroke-width="1" fill="none" fill-rule="evenodd">
        <g id="Rally-Age-pod-no-info" transform="translate(-373.000000, -151.000000)" fill-rule="nonzero">
            <g id="Rally-Age-pod-Copy-5">
                <g id="Group-2" transform="translate(373.000000, 150.000000)">
                    <ellipse id="Oval-Copy-9" fill="#CCCCCC" fill-rule="nonzero" cx="79.6497592" cy="192.678528" rx="79.6497592" ry="4.64661654"></ellipse>
                    <g id="sign" transform="translate(9.000000, 0.000000)">
                        <polygon id="Shape" fill="#EEEEEE" points="146 138.215442 9.96398104 153 0 55.7845579 136.036019 41"></polygon>
                        <path d="M77.0399854,126.844582 C60.5964278,128.530392 45.8110441,116.308269 44.1528702,99.5906519 C42.4946963,82.8730349 54.5164569,67.8412281 70.9600146,66.155418 C87.4035722,64.4696079 102.188956,76.6917312 103.84713,93.4093481 C105.505304,109.986481 93.4835431,125.018288 77.0399854,126.844582 Z M71.5127392,71.4938167 C57.9709858,72.8986585 48.1601237,85.2612659 49.5419353,98.888231 C50.9237469,112.515196 63.0836886,122.630057 76.4872608,121.225215 C90.0290142,119.820373 99.8398763,107.457766 98.4580647,93.8308007 C97.0762531,80.2038356 84.9163114,70.0889749 71.5127392,71.4938167 Z" id="Shape" fill="#FFFFFF"></path>
                        <circle id="Oval" fill="#666666" cx="122.5" cy="51.5" r="2.5"></circle>
                        <circle id="Oval" fill="#666666" cx="16.5" cy="61.5" r="2.5"></circle>
                        <g id="Group" transform="translate(62.000000, 75.000000)" fill="#EF5B4B">
                            <path d="M15.5833333,22.8951724 L15.5833333,22.8951724 C16.2916667,23.9875862 15.8666667,25.3531034 14.7333333,26.0358621 L3.96666667,32.0441379 C2.83333333,32.7268966 1.41666667,32.3172414 0.708333333,31.2248276 L0.708333333,31.2248276 C-9.12603326e-14,30.1324138 0.425,28.7668966 1.55833333,28.0841379 L12.325,22.0758621 C13.4583333,21.3931034 15.0166667,21.8027586 15.5833333,22.8951724 Z" id="Shape"></path>
                            <path d="M13.8833333,26.0358621 L13.8833333,26.0358621 C12.6083333,26.1724138 11.475,25.2165517 11.3333333,23.9875862 L9.06666667,2.68551724 C8.925,1.45655172 9.91666667,0.364137931 11.1916667,0.227586207 L11.1916667,0.227586207 C12.4666667,0.0910344828 13.6,1.04689655 13.7416667,2.27586207 L16.0083333,23.577931 C16.15,24.6703448 15.1583333,25.8993103 13.8833333,26.0358621 Z" id="Shape"></path>
                        </g>
                        <path d="M15.8273196,61 L15,60.5826827 L68.7757732,7.86159538 C69.0515464,7.3051723 69.6030928,7.02696076 70.1546392,7.02696076 C70.7061856,6.88785499 71.257732,7.3051723 71.6713918,7.86159538 L122,50.9843845 L121.17268,51.4017018 L70.8440722,8.2789127 C70.7061856,8.00070116 70.4304124,8.00070116 70.1546392,7.86159538 C69.878866,7.86159538 69.6030928,8.00070116 69.4652062,8.2789127 L15.8273196,61 Z" id="Shape" fill="#666666"></path>
                        <path d="M70.5286344,12.4713656 L70.5286344,12.4713656 C69.8237885,11.7665198 69.8237885,10.6387665 70.5286344,9.9339207 L75.3215859,5 L78,7.53744493 L73.2070485,12.4713656 C72.3612335,13.1762115 71.2334802,13.1762115 70.5286344,12.4713656 Z" id="Shape" fill="#D8D8D8"></path>
                        <ellipse id="Oval" fill="#B2B2B2" transform="translate(76.500000, 6.000000) rotate(44.286979) translate(-76.500000, -6.000000) " cx="76.5" cy="6" rx="5.5" ry="3"></ellipse>
                        <ellipse id="Oval" fill="#D8D8D8" transform="translate(76.000000, 5.500000) rotate(44.286979) translate(-76.000000, -5.500000) " cx="76" cy="5.5" rx="5" ry="2.5"></ellipse>
                    </g>
                </g>
            </g>
        </g>
    </g>
</svg>