<?xml version="1.0" encoding="UTF-8"?>
<svg width="196px" height="73px" viewBox="0 0 196 73" version="1.1" xmlns="http://www.w3.org/2000/svg" xmlns:xlink="http://www.w3.org/1999/xlink">
    <!-- Generator: Sketch 46.2 (44496) - http://www.bohemiancoding.com/sketch -->
    <title>Group 21</title>
    <desc>Created with Sketch.</desc>
    <defs></defs>
    <g id="Flow" stroke="none" stroke-width="1" fill="none" fill-rule="evenodd">
        <g id="All-states-for-Missions" transform="translate(-5862.000000, -1020.000000)" fill-rule="nonzero">
            <g id="Mission-Packs-(Sync)" transform="translate(165.000000, 860.000000)">
                <g id="Complete" transform="translate(5513.000000, 0.000000)">
                    <g id="Group-21" transform="translate(183.000000, 160.000000)">
                        <g id="exerciseImage" transform="translate(157.000000, 4.000000)">
                            <ellipse id="Oval" fill="#E5E5E4" cx="26.1176471" cy="47.3144" rx="10.1176471" ry="1.372"></ellipse>
                            <path d="M32.1568627,13.7592 L31.0588235,12.6616 L28.9411765,14.9744 L29.2941176,15.288 L29.254902,17.836 L32.6666667,17.836 L32.6666667,14.9352 C32.627451,14.5432 32.4705882,14.112 32.1568627,13.7592 L32.1568627,13.7592 Z" id="Shape" fill="#E5E5E4"></path>
                            <path d="M36.1176471,22.4616 C35.8823529,22.6968 35.8823529,23.0888 36.1176471,23.324 C36.3529412,23.5592 36.745098,23.5592 36.9803922,23.324 L37.9607843,22.3832 C38.1960784,22.148 38.1960784,21.756 37.9607843,21.5208 C37.7254902,21.2856 37.3333333,21.2856 37.0980392,21.5208 L36.1176471,22.4616 Z" id="Shape" fill="#FDC986"></path>
                            <path d="M10.9411765,13.524 C10.9411765,13.1712 10.6666667,12.8968 10.3137255,12.8968 C9.96078431,12.8968 9.68627451,13.1712 9.68627451,13.524 L9.68627451,14.896 C9.68627451,15.2488 9.96078431,15.5232 10.3137255,15.5232 C10.6666667,15.5232 10.9411765,15.2488 10.9411765,14.896 L10.9411765,13.524 Z" id="Shape" fill="#E5B77C"></path>
                            <path d="M13.8039216,6.5856 C13.3333333,6.5856 12.9019608,6.7816 12.5882353,7.0952 L7.29411765,12.348 C6.62745098,13.0144 6.62745098,14.112 7.29411765,14.7784 C7.96078431,15.4448 9.05882353,15.4448 9.7254902,14.7784 L14.5098039,9.996 L18.7058824,9.996 L18.7058824,6.5856 L13.8039216,6.5856 Z" id="Shape" fill="#E5B77C"></path>
                            <path d="M38.2352941,22.148 L32.6666667,22.148 L32.6666667,17.8752 L29.254902,17.8752 L29.254902,23.8728 C29.254902,24.8136 30.0392157,25.5976 30.9803922,25.5976 L38.2745098,25.5976 C39.2156863,25.5976 40,24.8136 40,23.8728 C39.9215686,22.932 39.1764706,22.148 38.2352941,22.148 L38.2352941,22.148 Z" id="Shape" fill="#FDC986"></path>
                            <polygon id="Shape" fill="#E5E5E4" points="18.7058824 6.5856 18.7058824 9.996 20.2745098 9.996 19.9607843 10.3096 23.7647059 6.5856"></polygon>
                            <path d="M26.1960784,9.0552 C25.4901961,9.7608 25.4901961,10.8976 26.1960784,11.6032 C26.9019608,12.3088 28.0392157,12.3088 28.745098,11.6032 L31.372549,8.9768 C32.0784314,8.2712 32.0784314,7.1344 31.372549,6.4288 C30.6666667,5.7232 29.5294118,5.7232 28.8235294,6.4288 L26.1960784,9.0552 Z" id="Shape" fill="#E5B77C"></path>
                            <path d="M34.0392157,1.7248 C34.8235294,2.744 35.0980392,4.116 34.5882353,5.4096 L33.8039216,7.3696 C33.0588235,9.2904 30.9019608,10.192 28.9803922,9.4472 L28.2745098,9.0944 C28.6666667,9.604 29.1764706,9.996 29.8039216,10.2312 C31.7254902,10.976 33.8823529,10.0744 34.627451,8.1536 L35.4117647,6.1936 C36.0784314,4.508 35.4509804,2.6656 34.0392157,1.7248 L34.0392157,1.7248 Z" id="Shape" fill="#E5B77C"></path>
                            <path d="M33.8039216,7.3696 L34.5882353,5.4096 C35.0980392,4.116 34.8627451,2.744 34.0392157,1.7248 C33.8431373,1.568 33.6078431,1.4504 33.3333333,1.372 C31.4117647,0.6272 29.254902,1.5288 28.5098039,3.4496 L27.7254902,5.4096 C27.2156863,6.7032 27.4509804,8.0752 28.2745098,9.0944 C28.4705882,9.2512 28.7058824,9.3688 28.9803922,9.4472 C30.8627451,10.2312 33.0196078,9.2904 33.8039216,7.3696 Z" id="Shape" fill="#FDC986"></path>
                            <path d="M32.7058824,7.2912 L33.5294118,8.1536 C33.8039216,8.428 34.2352941,8.232 34.2352941,7.8792 L34.2745098,6.1544 C34.2745098,5.7624 33.8431373,5.5664 33.5686275,5.8408 L32.7058824,6.664 C32.5490196,6.86 32.5490196,7.1344 32.7058824,7.2912 L32.7058824,7.2912 Z" id="Shape" fill="#FDC986"></path>
                            <path d="M34.9411765,2.5872 C34.9411765,2.5872 34.2352941,2.6656 33.5294118,1.96 C32.8235294,1.2936 30.9803922,1.9208 30.745098,2.744 C30.5490196,3.528 30.5882353,4.3512 30.5882353,4.3512 L30,4.5472 C30,4.5472 28.5098039,6.5072 27.4901961,6.1936 C27.4901961,6.1936 26.5882353,5.6448 27.372549,3.7632 C28.1568627,1.8816 29.254902,0.3528 31.0588235,0.588 C31.0980392,0.588 34.3137255,-0.7056 34.9411765,2.5872 L34.9411765,2.5872 Z" id="Shape" fill="#796041"></path>
                            <path d="M29.1764706,4.508 C28.8627451,4.8216 28.8627451,5.3312 29.1372549,5.684 L30.3529412,4.4688 C30.0392157,4.1552 29.5294118,4.1944 29.1764706,4.508 Z" id="Shape" fill="#FDC986"></path>
                            <path d="M25.4509804,7.056 C25.1372549,6.7424 24.7058824,6.5464 24.2352941,6.5464 L23.8039216,6.5464 L20,10.2704 L12.0784314,18.1496 L19.4509804,24.304 L28.9019608,14.9744 L31.0196078,12.6616 L25.4509804,7.056 Z" id="Shape" fill="#E5E5E4"></path>
                            <path d="M10.627451,33.32 L2.43137255,33.32 L2.43137255,38.22 L13.0980392,38.22 C14.4705882,38.22 15.5686275,37.1224 15.5686275,35.7504 L15.5686275,31.2816 L10.627451,31.2816 L10.627451,33.32 Z" id="Shape" fill="#E5B77C"></path>
                            <path d="M12.2352941,18.8552 L11.372549,19.7568 C10.9019608,20.2272 10.6666667,20.8544 10.6666667,21.4816 L10.6666667,31.2816 L15.5686275,31.2816 L15.5686275,25.9896 L16.1960784,26.6168 L12.745098,23.1672 C12.7058824,23.1672 11.2156863,21.756 12.2352941,18.8552 Z" id="Shape" fill="#2EAC9B"></path>
                            <path d="M18.9411765,24.8136 L19.4509804,24.304 L12.0784314,18.1496 L10.627451,19.6 C9.60784314,22.4616 11.0980392,23.912 11.0980392,23.912 L14.5490196,27.3616 L20.2352941,33.0456 L23.7254902,29.5568 L18.9411765,24.8136 Z" id="Shape" fill="#47BEB0"></path>
                            <path d="M26.4313725,32.3008 L23.7254902,29.596 L20.2352941,33.0848 L22.1960784,35.0448 L22.1960784,45.1192 L27.0980392,45.1192 L27.0980392,34.0648 C27.1372549,33.3592 26.9019608,32.732 26.4313725,32.3008 L26.4313725,32.3008 Z" id="Shape" fill="#FDC986"></path>
                            <path d="M27.4901961,44.8056 C24.745098,44.8056 22.5098039,45.7464 22.1960784,46.9224 L32.745098,46.9224 C32.4705882,45.7464 30.2352941,44.8056 27.4901961,44.8056 Z" id="Shape" fill="#EF5B4B"></path>
                            <polygon id="Shape" fill="#EF5B4B" points="22.2352941 44.8056 27.5294118 44.8056 27.5294118 46.9224 22.2352941 46.9224"></polygon>
                            <polygon id="Shape" fill="#FFFFFF" points="22.2352941 46.9616 32.7843137 46.9616 32.7843137 47.4712 22.2352941 47.4712"></polygon>
                            <path d="M2.70588235,38.612 C2.70588235,35.868 1.76470588,33.6336 0.588235294,33.32 L0.588235294,43.8648 C1.76470588,43.5904 2.70588235,41.3168 2.70588235,38.612 Z" id="Shape" fill="#EF5B4B"></path>
                            <polygon id="Shape" fill="#EF5B4B" points="0.588235294 33.32 2.70588235 33.32 2.70588235 38.612 0.588235294 38.612"></polygon>
                            <polygon id="Shape" fill="#FFFFFF" points="0.0784313725 33.32 0.588235294 33.32 0.588235294 43.8648 0.0784313725 43.8648"></polygon>
                        </g>
                        <g id="stressImage" transform="translate(0.000000, 4.000000)">
                            <ellipse id="Oval" fill="#E5E5E4" cx="26.8251683" cy="46.2490738" rx="15.6744696" ry="2.28836563"></ellipse>
                            <path d="M37.3806339,20.715731 C32.4997231,20.715731 28.5711851,24.6902608 28.5711851,29.6283129 L37.3806339,29.6283129 L37.3806339,20.715731 Z" id="Shape" fill="#231F20"></path>
                            <polygon id="Shape" fill="#36C8B5" points="36.0235026 21.0148244 41.9714678 18.5478056 44.7107302 25.3085209 38.7623682 27.7759412"></polygon>
                            <ellipse id="Oval" fill="#231F20" transform="translate(49.254283, 19.456259) rotate(-67.289000) translate(-49.254283, -19.456259) " cx="49.2542826" cy="19.4562591" rx="3.57139814" ry="3.61320889"></ellipse>
                            <ellipse id="Oval" fill="#36C8B5" transform="translate(37.380632, 24.369878) rotate(-22.286000) translate(-37.380632, -24.369878) " cx="37.3806316" cy="24.3698779" rx="3.57139814" ry="3.61320889"></ellipse>
                            <path d="M16.5871603,20.715731 L16.5871603,46.1687803 C16.5871603,46.1687803 20.5553804,47.5337703 26.9838971,47.5337703 C33.4124137,47.5337703 37.4203161,46.1687803 37.4203161,46.1687803 L37.4203161,20.715731 L16.5871603,20.715731 Z" id="Shape" fill="#36C8B5"></path>
                            <path d="M16.5871603,20.715731 C21.4283889,20.715731 25.396609,24.7304075 25.396609,29.6283129 L16.5871603,29.6283129 L16.5871603,20.715731 Z" id="Shape" fill="#36C8B5"></path>
                            <ellipse id="Oval" fill="#E4BA90" cx="26.9838971" cy="16.2192932" rx="8.41262674" ry="8.51111428"></ellipse>
                            <path d="M26.9838971,7.50744514 C28.1346809,7.50744514 29.2457826,7.6680322 30.2378376,8.02935309 C31.2298926,8.35052722 32.1425833,8.8322884 32.8965451,9.39434312 C33.6505069,9.95639783 34.2854222,10.6790396 34.6822442,11.4418282 C35.1187484,12.2046167 35.3568416,13.0476988 35.3568416,13.9309276 C35.3568416,14.8141565 35.7933458,18.3872186 35.3568416,19.1500071 C34.9203374,19.9127957 33.6505069,18.2266315 32.8965451,18.7886862 C32.1425833,19.350741 31.2298926,19.8325021 30.2378376,20.1536763 C29.2457826,20.4748504 28.1346809,20.6755842 26.9838971,20.6755842 C25.8331132,20.6755842 24.7220116,20.5149972 23.7299565,20.1536763 C22.7379015,19.8325021 21.8252109,19.350741 21.071249,18.7886862 C20.3172872,18.2266315 19.0077746,19.9127957 18.6109525,19.1500071 C18.1744483,18.3872186 18.6109525,14.8141565 18.6109525,13.9309276 C18.6109525,13.0476988 18.8490458,12.2046167 19.28555,11.4418282 C19.7220542,10.6790396 20.3172872,9.9965446 21.071249,9.39434312 C21.8252109,8.8322884 22.7379015,8.35052722 23.7299565,8.02935309 C24.7220116,7.6680322 25.8331132,7.50744514 26.9838971,7.50744514 Z" id="Shape" fill="#634909"></path>
                            <polygon id="Shape" fill="#E4BA90" points="36.0334231 17.8211492 38.8218915 11.0809087 50.6459971 16.0876119 47.8575288 22.8282538"></polygon>
                            <ellipse id="Oval" fill="#E4BA90" transform="translate(37.420683, 14.450985) rotate(-67.289000) translate(-37.420683, -14.450985) " cx="37.4206834" cy="14.4509851" rx="3.57139814" ry="3.61320889"></ellipse>
                            <ellipse id="Oval" fill="#E4BA90" transform="translate(49.254283, 19.456259) rotate(-67.289000) translate(-49.254283, -19.456259) " cx="49.2542826" cy="19.4562591" rx="3.57139814" ry="3.61320889"></ellipse>
                            <polygon id="Shape" fill="#36C8B5" points="9.19119153 25.2603448 11.9304539 18.4996295 17.952228 20.9967583 15.2129656 27.7574736"></polygon>
                            <ellipse id="Oval" fill="#231F20" transform="translate(4.727668, 19.471518) rotate(-22.711000) translate(-4.727668, -19.471518) " cx="4.72766791" cy="19.4715179" rx="3.57139814" ry="3.61320889"></ellipse>
                            <ellipse id="Oval" fill="#36C8B5" transform="translate(16.580537, 24.368734) rotate(-67.710000) translate(-16.580537, -24.368734) " cx="16.5805374" cy="24.3687337" rx="3.57139814" ry="3.61320889"></ellipse>
                            <polygon id="Shape" fill="#E4BA90" points="3.35830472 16.1068823 15.1820135 11.1001792 17.9704818 17.8408211 6.14677303 22.8471228"></polygon>
                            <ellipse id="Oval" fill="#E4BA90" transform="translate(16.547508, 14.452184) rotate(-22.711000) translate(-16.547508, -14.452184) " cx="16.5475082" cy="14.4521844" rx="3.57139814" ry="3.61320889"></ellipse>
                            <ellipse id="Oval" fill="#E4BA90" transform="translate(4.727668, 19.471518) rotate(-22.711000) translate(-4.727668, -19.471518) " cx="4.72766791" cy="19.4715179" rx="3.57139814" ry="3.61320889"></ellipse>
                            <path d="M3.35036828,22.8214288 L6.08963066,16.0607135 L11.928073,18.4815635 L9.18841378,25.2426803 L3.35036828,22.8214288 Z M41.9619441,18.5184985 L47.8737985,16.067137 L50.6130608,22.8278523 L44.7016033,25.2796153 L41.9619441,18.5184985 Z" id="Shape" fill="#E4BA90"></path>
                            <path d="M17.4998509,5.7008407 C18.2538127,6.02201482 18.9284102,6.22274865 18.9680924,6.22274865 C18.9680924,6.22274865 19.5633254,6.42348247 19.682372,6.30304218 C19.8014186,6.18260188 19.6030076,5.5804004 19.6030076,5.5804004 C19.6030076,5.54025363 19.4045966,4.85775862 19.087139,4.09497008 C18.6109525,2.97086064 18.0554017,2.3285124 17.4601687,2.12777857 C17.1030289,2.00733827 16.5077959,2.12777857 16.0316094,2.60953975 C15.555423,3.09130094 15.4760586,3.69350242 15.555423,4.01467655 C15.753834,4.65702479 16.3887493,5.21907951 17.4998509,5.7008407 L17.4998509,5.7008407 Z M35.7139814,4.05482331 C35.3965238,4.81761186 35.1981128,5.50010687 35.1981128,5.54025363 C35.1981128,5.54025363 34.9997018,6.14245512 35.1187484,6.26289541 C35.237795,6.38333571 35.833028,6.18260188 35.833028,6.18260188 C35.8727102,6.18260188 36.5473077,5.98186805 37.3012695,5.66069393 C38.4123711,5.17893274 39.0472864,4.61687803 39.2456974,4.01467655 C39.364744,3.65335566 39.2456974,3.05115417 38.7695109,2.56939299 C38.2933245,2.0876318 37.6584093,2.00733827 37.3409517,2.0876318 C36.7457187,2.28836563 36.1901678,2.93071388 35.7139814,4.05482331 L35.7139814,4.05482331 Z M26.0315242,3.61320889 C26.3489819,4.37599744 26.7061217,4.97819892 26.7061217,5.01834568 C26.7061217,5.01834568 27.0235793,5.5804004 27.1823081,5.5804004 C27.3410369,5.5804004 27.6584945,5.01834568 27.6584945,5.01834568 C27.6584945,4.97819892 28.0553165,4.37599744 28.3330919,3.61320889 C28.7695961,2.48909946 28.8489606,1.64601738 28.5315029,1.0438159 C28.3727741,0.722641778 27.8569055,0.361320889 27.1823081,0.361320889 C26.5077107,0.361320889 26.0315242,0.722641778 25.8331132,1.0438159 C25.5156556,1.64601738 25.5553378,2.48909946 26.0315242,3.61320889 Z" id="Shape" fill="#9CDAEE"></path>
                            <path d="M38.7298287,13.2484326 L37.2615873,11.3615346 C36.8647653,10.8396267 36.9441297,10.1169849 37.4599983,9.71551724 C37.9758669,9.31404959 38.6901465,9.39434312 39.0869686,9.91625107 L40.55521,11.803149 C40.952032,12.325057 40.8726676,13.0476988 40.356799,13.4491664 C39.8409304,13.8104873 39.1266508,13.7301938 38.7298287,13.2484326 Z M13.6903595,12.0038829 L14.8808256,9.95639783 C15.1982832,9.39434312 15.9125628,9.19360929 16.4681137,9.51478341 C17.0236645,9.83595754 17.2220755,10.5585993 16.9046179,11.120654 L15.7141518,13.1681391 C15.3966942,13.7301938 14.6824146,13.9309276 14.1268638,13.6097535 C13.5713129,13.2885794 13.3729019,12.5659376 13.6903595,12.0038829 Z" id="Shape" fill="#E4BA90"></path>
                        </g>
                        <g id="moodImage" transform="translate(48.000000, 0.000000)">
                            <ellipse id="Oval" fill="#E5E5E4" cx="31.0551724" cy="64.9830357" rx="20.3758621" ry="2.15089286"></ellipse>
                            <ellipse id="Oval" fill="#EF5B4B" cx="32.1689655" cy="33.3714286" rx="31.7758621" ry="31.6116071"></ellipse>
                            <path d="M51.8896552,8.53839286 C56.1482759,13.9482143 58.7034483,20.7267857 58.7034483,28.1571429 C58.7034483,45.625 44.4862069,59.76875 26.9275862,59.76875 C19.4586207,59.76875 12.6448276,57.2267857 7.20689655,52.9901786 C13.037931,60.2901786 22.0137931,64.9830357 32.1689655,64.9830357 C49.7275862,64.9830357 63.9448276,50.8392857 63.9448276,33.3714286 C63.9448276,23.26875 59.2275862,14.3392857 51.8896552,8.53839286 L51.8896552,8.53839286 Z" id="Shape" fill="#CF4F41"></path>
                            <path d="M48.7448276,28.8089286 C48.6137931,28.8089286 48.4827586,28.8089286 48.2862069,28.74375 L38.6551724,26.7883929 C37.737931,26.5928571 37.0172414,25.8107143 36.9517241,24.8330357 C36.8862069,23.8553571 37.4103448,23.0080357 38.3275862,22.6169643 L48.2862069,18.8366071 C49.4,18.3803571 50.6448276,18.9669643 51.1034483,20.075 C51.562069,21.1830357 50.9724138,22.4214286 49.8586207,22.8776786 L46.8448276,24.0508929 L49.2689655,24.5723214 C50.4482759,24.8330357 51.1689655,25.9410714 50.9724138,27.1142857 C50.7103448,28.0919643 49.7931034,28.8089286 48.7448276,28.8089286 L48.7448276,28.8089286 Z M15.2,28.8089286 C14.2172414,28.8089286 13.3,28.0919643 13.1034483,27.1142857 C12.8413793,25.9410714 13.6275862,24.7678571 14.8068966,24.5723214 L17.2310345,24.0508929 L14.2172414,22.8776786 C13.1034483,22.4214286 12.5137931,21.1830357 12.9724138,20.075 C13.4310345,18.9669643 14.6758621,18.3803571 15.7896552,18.8366071 L25.7482759,22.6169643 C26.6655172,22.9428571 27.1896552,23.8553571 27.1241379,24.8330357 C27.0586207,25.8107143 26.337931,26.5928571 25.4206897,26.7883929 L15.7896552,28.8089286 L15.2,28.8089286 L15.2,28.8089286 Z" id="Shape" fill="#4D4D4D"></path>
                            <path d="M45.862069,40.0848214 L17.4931034,40.0848214 C15.7896552,42.6919643 14.8068966,45.8205357 14.8068966,49.1446429 L14.8724138,49.0142857 C19.8517241,46.2116071 25.5517241,44.5821429 31.6448276,44.5821429 C37.737931,44.5821429 43.5034483,46.2116071 48.4827586,49.0142857 L48.5482759,49.0794643 C48.5482759,45.8205357 47.5655172,42.6919643 45.862069,40.0848214 Z M31.7103448,32.39375 C26.2068966,32.39375 21.3586207,35.0008929 18.2793103,39.0419643 L45.2068966,39.0419643 C42.062069,35.0008929 37.2137931,32.39375 31.7103448,32.39375 Z" id="Shape" fill="#FFFFFF"></path>
                            <path d="M45.1413793,39.0419643 L18.2137931,39.0419643 C17.9517241,39.3678571 17.6896552,39.7589286 17.4931034,40.0848214 L45.862069,40.0848214 C45.6655172,39.7589286 45.4034483,39.3678571 45.1413793,39.0419643 Z" id="Shape" fill="#4D4D4D"></path>
                            <ellipse id="Oval" fill="#E5E5E4" cx="78.2275862" cy="70.1321429" rx="26.9275862" ry="2.86785714"></ellipse>
                            <ellipse id="Oval" fill="#FFC82B" cx="78.6862069" cy="35.3267857" rx="34.9862069" ry="34.8053571"></ellipse>
                            <path d="M100.372414,8.08214286 C105.089655,14.0133929 107.906897,21.5089286 107.906897,29.65625 C107.906897,48.8839286 92.2482759,64.4616071 72.9206897,64.4616071 C64.7310345,64.4616071 57.1965517,61.6589286 51.2344828,56.9660714 C57.6551724,65.0482143 67.5482759,70.1973214 78.6862069,70.1973214 C98.0137931,70.1973214 113.672414,54.6196429 113.672414,35.3919643 C113.672414,24.3116071 108.431034,14.4044643 100.372414,8.08214286 L100.372414,8.08214286 Z" id="Shape" fill="#EEBB28"></path>
                            <path d="M87.2034483,28.9392857 C86.4172414,28.9392857 85.6965517,28.6785714 85.1068966,28.0919643 C83.9275862,26.91875 83.9275862,25.0285714 85.1068966,23.8553571 L85.1724138,23.7901786 C88.7758621,20.2053571 94.6724138,20.2053571 98.2758621,23.7901786 C99.4551724,24.9633929 99.4551724,26.8535714 98.2758621,28.0267857 C97.0965517,29.2 95.1965517,29.2 94.0172414,28.0267857 C92.7724138,26.7883929 90.6758621,26.7883929 89.3655172,28.0267857 L89.3,28.0919643 C88.7103448,28.6133929 87.9241379,28.9392857 87.2034483,28.9392857 L87.2034483,28.9392857 Z M61.2586207,28.9392857 C60.4724138,28.9392857 59.7517241,28.6785714 59.162069,28.0919643 C57.9827586,26.91875 57.9827586,25.0285714 59.162069,23.8553571 L59.2275862,23.7901786 C62.8310345,20.2053571 68.7275862,20.2053571 72.3310345,23.7901786 C73.5103448,24.9633929 73.5103448,26.8535714 72.3310345,28.0267857 C71.1517241,29.2 69.2517241,29.2 68.0724138,28.0267857 C66.8275862,26.7883929 64.7310345,26.7883929 63.4206897,28.0267857 L63.3551724,28.0919643 C62.7655172,28.6133929 62.0448276,28.9392857 61.2586207,28.9392857 Z M60.2103448,37.0866071 C65.6482759,40.2151786 71.937931,41.975 78.6862069,41.975 C85.4344828,41.975 91.7241379,40.2151786 97.162069,37.0866071 L97.2275862,36.95625 C97.2275862,47.1241071 88.9068966,55.4017857 78.6862069,55.4017857 C68.4655172,55.4017857 60.1448276,47.1241071 60.1448276,36.95625 L60.2103448,37.0866071 L60.2103448,37.0866071 Z" id="Shape" fill="#4D4D4D"></path>
                            <path d="M88.3172414,52.7946429 C85.5,51.1 82.2241379,50.1223214 78.6862069,50.1223214 C75.1482759,50.1223214 71.8724138,51.1 69.0551724,52.7946429 C71.8724138,54.4892857 75.1482759,55.4669643 78.6862069,55.4669643 C82.2241379,55.4669643 85.5,54.4892857 88.3172414,52.7946429 Z" id="Shape" fill="#EF5B4B"></path>
                            <path d="M60.1448276,37.0866071 C64.1413793,42.1053571 70.9551724,45.4294643 78.6862069,45.4294643 C86.4172414,45.4294643 93.2310345,42.1053571 97.2275862,37.0866071 C91.5931034,39.2375 85.3034483,40.4758929 78.6862069,40.4758929 C72.0689655,40.4107143 65.7793103,39.2375 60.1448276,37.0866071 Z" id="Shape" fill="#FFFFFF"></path>
                        </g>
                    </g>
                </g>
            </g>
        </g>
    </g>
</svg>