<?xml version="1.0" encoding="UTF-8"?>
<svg width="51px" height="40px" viewBox="0 0 51 40" version="1.1" xmlns="http://www.w3.org/2000/svg" xmlns:xlink="http://www.w3.org/1999/xlink">
    <!-- Generator: Sketch 48.2 (47327) - http://www.bohemiancoding.com/sketch -->
    <title>Progress_bar-Stars</title>
    <desc>Created with Sketch.</desc>
    <defs></defs>
    <g id="Page-1" stroke="none" stroke-width="1" fill="none" fill-rule="evenodd">
        <g id="Group-35-Copy-3" transform="translate(-528.000000, -22.000000)" fill="#FFC82B">
            <g id="progress">
                <g id="Progress-bar">
                    <g id="celebration" transform="translate(524.000000, 2.000000)">
                        <g id="Progress_bar-Stars" transform="translate(4.000000, 20.000000)">
                            <path d="M39.94421,19.0572847 L40.623874,20.7633548 C40.907978,21.4806797 41.4849275,22.0493697 42.2126707,22.3315606 L43.9457047,23.0014947 L42.2126707,23.6714288 C41.4849275,23.9514655 40.907978,24.5201556 40.623874,25.2374805 L39.94421,26.9457047 L39.2645459,25.2374805 C38.9782566,24.5201556 38.4013071,23.9514655 37.6735639,23.6714288 L35.9427153,23.0014947 L37.6735639,22.3315606 C38.4013071,22.0493697 38.9782566,21.4806797 39.2645459,20.7633548 L39.94421,19.0572847 Z" id="Fill-16" transform="translate(39.944210, 23.001495) rotate(-90.000000) translate(-39.944210, -23.001495) "></path>
                            <path d="M22.94421,32.0572847 L23.623874,33.7633548 C23.907978,34.4806797 24.4849275,35.0493697 25.2126707,35.3315606 L26.9457047,36.0014947 L25.2126707,36.6714288 C24.4849275,36.9514655 23.907978,37.5201556 23.623874,38.2374805 L22.94421,39.9457047 L22.2645459,38.2374805 C21.9782566,37.5201556 21.4013071,36.9514655 20.6735639,36.6714288 L18.9427153,36.0014947 L20.6735639,35.3315606 C21.4013071,35.0493697 21.9782566,34.4806797 22.2645459,33.7633548 L22.94421,32.0572847 Z" id="Fill-16-Copy" transform="translate(22.944210, 36.001495) rotate(-90.000000) translate(-22.944210, -36.001495) "></path>
                            <path d="M12.5,0 L12.924773,1.08173857 C13.1031128,1.53746351 13.463035,1.89750243 13.9169909,2.0759001 L15,2.5008109 L13.9169909,2.9257217 C13.463035,3.10411936 13.1031128,3.46415829 12.924773,3.91826143 L12.5,5 L12.075227,3.91826143 C11.8968872,3.46415829 11.536965,3.10411936 11.0813878,2.9257217 L10,2.5008109 L11.0813878,2.0759001 C11.536965,1.89750243 11.8968872,1.53746351 12.075227,1.08173857 L12.5,0 Z" id="Fill-3-Copy" transform="translate(12.500000, 2.500000) rotate(-90.000000) translate(-12.500000, -2.500000) "></path>
                            <path d="M47.3807514,8.04910118 L47.963515,9.51193686 C48.2081867,10.128214 48.7019787,10.6150948 49.3247794,10.8563421 L50.810604,11.4309492 L49.3247794,12.0055563 C48.7019787,12.2468036 48.2081867,12.7336844 47.963515,13.3477683 L47.3807514,14.810604 L46.7979879,13.3477683 C46.5533162,12.7336844 46.0595242,12.2468036 45.4344991,12.0055563 L43.9508988,11.4309492 L45.4344991,10.8563421 C46.0595242,10.6150948 46.5533162,10.128214 46.7979879,9.51193686 L47.3807514,8.04910118 Z" id="Fill-3" transform="translate(47.380751, 11.429853) rotate(-90.000000) translate(-47.380751, -11.429853) "></path>
                            <path d="M33.3807514,0.0491011797 L33.963515,1.51193686 C34.2081867,2.12821395 34.7019787,2.61509479 35.3247794,2.85634206 L36.810604,3.43094917 L35.3247794,4.00555629 C34.7019787,4.24680355 34.2081867,4.73368439 33.963515,5.34776833 L33.3807514,6.81060401 L32.7979879,5.34776833 C32.5533162,4.73368439 32.0595242,4.24680355 31.4344991,4.00555629 L29.9508988,3.43094917 L31.4344991,2.85634206 C32.0595242,2.61509479 32.5533162,2.12821395 32.7979879,1.51193686 L33.3807514,0.0491011797 Z" id="Fill-3-Copy-2" transform="translate(33.380751, 3.429853) rotate(-90.000000) translate(-33.380751, -3.429853) "></path>
                            <path d="M2.5,9 L2.92477302,10.0817386 C3.10311284,10.5374635 3.46303502,10.8975024 3.91699092,11.0759001 L5,11.5008109 L3.91699092,11.9257217 C3.46303502,12.1041194 3.10311284,12.4641583 2.92477302,12.9182614 L2.5,14 L2.07522698,12.9182614 C1.89688716,12.4641583 1.53696498,12.1041194 1.08138781,11.9257217 L0,11.5008109 L1.08138781,11.0759001 C1.53696498,10.8975024 1.89688716,10.5374635 2.07522698,10.0817386 L2.5,9 Z" id="Fill-3" transform="translate(2.500000, 11.500000) rotate(-90.000000) translate(-2.500000, -11.500000) "></path>
                            <path d="M5.38075142,25.0491012 L5.96351496,26.5114625 C6.20818667,27.1275398 6.70197868,27.6142628 7.3270037,27.8554318 L8.81060401,28.4298526 L7.3270037,29.0042734 C6.70197868,29.2454424 6.20818667,29.7321654 5.96351496,30.3482427 L5.38075142,31.810604 L4.79798787,30.3482427 C4.55331616,29.7321654 4.05952415,29.2454424 3.43449913,29.0042734 L1.95089882,28.4298526 L3.43449913,27.8554318 C4.05952415,27.6142628 4.55331616,27.1275398 4.79798787,26.5114625 L5.38075142,25.0491012 Z" id="Fill-12" transform="translate(5.380751, 28.429853) rotate(-90.000000) translate(-5.380751, -28.429853) "></path>
                            <path d="M15.5,16 L15.924773,17.0817386 C16.1031128,17.5374635 16.463035,17.8975024 16.9169909,18.0759001 L18,18.5008109 L16.9169909,18.9257217 C16.463035,19.1041194 16.1031128,19.4641583 15.924773,19.9182614 L15.5,21 L15.075227,19.9182614 C14.8968872,19.4641583 14.536965,19.1041194 14.0813878,18.9257217 L13,18.5008109 L14.0813878,18.0759001 C14.536965,17.8975024 14.8968872,17.5374635 15.075227,17.0817386 L15.5,16 Z" id="Fill-3" transform="translate(15.500000, 18.500000) rotate(-90.000000) translate(-15.500000, -18.500000) "></path>
                        </g>
                    </g>
                </g>
            </g>
        </g>
    </g>
</svg>