<?xml version="1.0" encoding="UTF-8"?>
<svg width="151px" height="112px" viewBox="0 0 151 112" version="1.1" xmlns="http://www.w3.org/2000/svg" xmlns:xlink="http://www.w3.org/1999/xlink">
    <!-- Generator: Sketch 46.2 (44496) - http://www.bohemiancoding.com/sketch -->
    <title>badge</title>
    <desc>Created with Sketch.</desc>
    <defs></defs>
    <g id="Flow" stroke="none" stroke-width="1" fill="none" fill-rule="evenodd">
        <g id="All-states-for-Missions" transform="translate(-4652.000000, -1035.000000)">
            <g id="Mission-Packs-(Sync)" transform="translate(165.000000, 860.000000)">
                <g id="Weekly-success-met" transform="translate(4283.000000, 0.000000)">
                    <g id="badge" transform="translate(204.000000, 167.000000)">
                        <g id="Page-1" transform="translate(0.695312, 8.000000)">
                            <path d="M95.4781082,50.8460194 C90.2340933,50.8460194 85.9677916,46.5806315 85.9677916,41.3372258 C85.9677916,36.0179788 90.2800854,33.9632582 92.5961387,32.8594474 C93.0067173,32.6642094 93.4045034,32.4774996 93.7599524,32.2779974 L94.2079948,32.066921 C99.2899712,30.0880417 104.731356,23.4992905 104.731356,16.8441401 C104.731356,13.781248 102.23834,11.2885362 99.174534,11.2885362 C96.1110328,11.2885362 93.6189302,13.781248 93.6189302,16.8441401 C93.6189302,18.7971298 92.0357049,20.380355 90.0827153,20.380355 C88.1297256,20.380355 86.5468049,18.7971298 86.5468049,16.8441401 C86.5468049,9.88105567 92.2114496,4.21641092 99.174534,4.21641092 C106.138228,4.21641092 111.803786,9.88105567 111.803786,16.8441401 C111.803786,26.7342723 104.317123,35.5985672 96.999503,38.567343 C96.5746089,38.7957807 96.113774,39.0175175 95.6383191,39.2438231 C93.2640904,40.3753509 93.0402215,40.7164845 93.0402215,41.3372258 C93.0402215,42.6804392 94.1336764,43.7738941 95.4781082,43.7738941 C97.4310978,43.7738941 99.0140185,45.3571194 99.0140185,47.3101091 C99.0140185,49.2634033 97.4310978,50.8460194 95.4781082,50.8460194" id="Fill-1" fill="#CB9F2C"></path>
                            <path d="M53.0820891,50.8460194 C51.1290994,50.8460194 49.5458741,49.2634033 49.5458741,47.3101091 C49.5458741,45.3571194 51.1290994,43.7738941 53.0820891,43.7738941 C54.4262162,43.7738941 55.5199758,42.6804392 55.5199758,41.3372258 C55.5199758,40.7164845 55.2961068,40.3753509 52.9215735,39.2438231 C52.4464232,39.0175175 51.9855883,38.7957807 51.5606943,38.567343 C44.2430746,35.5985672 36.7564111,26.7342723 36.7564111,16.8441401 C36.7564111,9.88105567 42.4219696,4.21641092 49.3856632,4.21641092 C56.3487476,4.21641092 62.0133923,9.88105567 62.0133923,16.8441401 C62.0133923,18.7971298 60.4304717,20.380355 58.477482,20.380355 C56.5244923,20.380355 54.941267,18.7971298 54.941267,16.8441401 C54.941267,13.781248 52.4491645,11.2885362 49.3856632,11.2885362 C46.3215527,11.2885362 43.8285364,13.781248 43.8285364,16.8441401 C43.8285364,23.4992905 49.2699214,30.0880417 54.3522024,32.066921 L54.8002448,32.2779974 C55.1556938,32.4774996 55.5534799,32.6642094 55.9640586,32.8594474 C58.2801118,33.9632582 62.5924056,36.0179788 62.5924056,41.3372258 C62.5924056,46.5806315 58.3261039,50.8460194 53.0820891,50.8460194" id="Fill-3" fill="#CB9F2C"></path>
                            <path d="M90.5997154,8.73524284 C90.5997154,8.73524284 87.6029179,9.58990426 74.4933375,9.58990426 C61.3837572,9.58990426 57.7138301,8.73524284 57.7138301,8.73524284 C55.9847093,8.73524284 54.5976359,10.7357476 54.6323584,12.3214095 C54.6652534,13.9046347 54.7249518,16.5420237 54.762111,18.2717536 L54.7718577,18.6750222 C54.8074939,20.4044476 54.950039,23.2142308 55.0852741,24.937869 C55.0852741,24.937869 55.4267123,29.254427 56.409908,32.2049278 C57.6255009,35.851402 59.3646729,38.7336761 60.9780519,40.9991685 C62.2335453,42.7669714 63.6230554,44.1570907 64.9394655,45.2344027 C67.7696558,47.5547201 68.1531265,47.5513697 68.1531265,47.5513697 C69.5121783,48.02652 71.0107293,49.8287409 71.0107293,51.5581662 L71.0107293,63.4682965 C71.0107293,65.1977219 69.0117475,66.8360768 67.3018155,67.1071561 L56.3998567,70.2227412 L56.4686926,73.0885678 C56.4686926,73.0885678 63.8886523,74.8262169 75.3614007,74.7975861 C93.0485671,74.7534214 92.8082506,72.7955584 92.8082506,72.7955584 L92.864294,70.1694391 L81.7250646,66.9914144 C80.0178739,66.7178984 79.234485,65.1730506 79.234485,63.4436253 L79.234485,51.5941071 C79.234485,49.8643771 79.6880099,48.1379976 80.9544683,47.756659 C80.9544683,47.756659 80.6632864,47.756659 83.3832175,45.5989892 C84.7836926,44.4884776 86.1518819,42.9911449 87.5139795,40.9994731 C89.0417705,38.7674849 90.6359608,35.9132325 91.8448529,32.2862516 C92.8323127,29.3272225 93.6726587,24.9128932 93.6726587,24.9128932 C93.8359155,23.1916916 94.4636622,20.371248 94.4636622,18.641518 L94.4636622,18.5480109 C94.4636622,16.8213268 94.1012078,14.1778462 94.1368441,12.4956313 C94.1727849,10.815853 92.3291407,8.73524284 90.5997154,8.73524284" id="Fill-5" fill="#FFC82C"></path>
                            <path d="M54.6790815,13.8994873 C54.6790815,13.8994873 54.684564,14.2461034 54.6940061,14.8957801 C54.7080169,15.5454568 54.7610145,16.4972803 54.8313733,17.7052587 C54.9803146,20.1190833 55.340637,23.5681873 56.2032176,27.5993505 C56.6433408,29.6111248 57.2324054,31.7636167 58.0471663,33.9578366 C58.8686282,36.1468785 59.9587327,38.3675971 61.4076366,40.4159215 C62.8629368,42.4548037 64.7592739,44.2609841 67.0348176,45.4811458 C69.3045741,46.7141 71.9422676,47.2833666 74.5954949,47.2876308 C77.255423,47.3296633 79.8931165,46.7893321 82.1796251,45.5959738 C83.3169401,44.9944213 84.3622708,44.2439275 85.3070889,43.3947485 C86.2439879,42.5352138 87.0675818,41.5675518 87.7903586,40.5468924 C89.2215967,38.4912581 90.263577,36.2476957 91.0463567,34.0470796 C91.8178668,31.8388489 92.3554567,29.6729553 92.7498924,27.6523481 C93.5165292,23.6029098 93.7940048,20.1461912 93.8835524,17.7293208 C93.9246712,16.5201241 93.9536066,15.5673868 93.9517791,14.9177101 C93.945992,14.2677288 93.9426416,13.9208081 93.9426416,13.9208081 C93.9426416,13.9208081 93.9785825,14.2662059 94.0465046,14.9134459 C94.1028525,15.5615997 94.1896588,16.514337 94.2225539,17.7305391 C94.2624543,18.9464366 94.2752468,20.4251897 94.2188989,22.1229384 C94.1640738,23.8203825 94.0373671,25.7386496 93.7367431,27.8168232 C93.4446475,29.8949967 93.0081793,32.1416049 92.2805292,34.4576582 C91.5528791,36.7679244 90.5602413,39.1738298 89.0549895,41.4149555 C87.5616163,43.64603 85.5300441,45.7324272 82.9648415,47.0829507 C80.4136497,48.4413933 77.4604077,49.0593933 74.5830069,49.0271074 C71.702865,49.0042637 68.7605879,48.3551961 66.234372,46.9568531 C63.6895765,45.5816584 61.6720151,43.5019619 60.1554936,41.2925129 C58.6353172,39.0675301 57.5982102,36.6859914 56.8276138,34.3903452 C56.0542762,32.091044 55.5681609,29.8557054 55.2264181,27.7857556 C54.8770608,25.7151967 54.7052757,23.8008891 54.607809,22.1055771 C54.5094285,20.4099605 54.4853664,18.9312074 54.4948085,17.7147008 C54.4972451,16.4981941 54.5605985,15.5436293 54.6001944,14.8942571 C54.651669,14.2454942 54.6790815,13.8994873 54.6790815,13.8994873" id="Fill-7" fill="#CB9F2C"></path>
                            <path d="M89.1493799,8.73524284 C89.1493799,8.73524284 86.5226514,9.58990426 75.031628,9.58990426 C63.5409093,9.58990426 60.3242025,8.73524284 60.3242025,8.73524284 C60.3242025,8.73524284 59.4899481,10.9995169 74.6192219,10.9995169 C89.7481911,10.9995169 89.1493799,8.73524284 89.1493799,8.73524284" id="Fill-9" fill="#FBE6A7"></path>
                            <path d="M99.1744427,4.21647183 C105.877717,4.21647183 111.37545,9.46566463 111.777501,16.0687313 C111.793948,15.7409994 111.803695,15.4120492 111.803695,15.0818806 C111.803695,8.1187962 106.138136,2.45384686 99.1744427,2.45384686 C92.2116629,2.45384686 86.5467135,8.1187962 86.5467135,15.0818806 C86.5467135,15.2883882 86.5677298,15.4894134 86.6021477,15.6861744 C87.1887756,9.26403033 92.602139,4.21647183 99.1744427,4.21647183" id="Fill-11" fill="#FBE6A7"></path>
                            <path d="M95.4781082,42.0112996 C94.5159287,42.0112996 93.6895936,41.4466017 93.2933304,40.6348866 C93.0813402,40.871548 93.0402215,41.0807969 93.0402215,41.3372562 C93.0402215,42.6804697 94.1336764,43.7739246 95.4781082,43.7739246 C97.1262097,43.7739246 98.5068869,44.9030158 98.8988859,46.4286748 C98.9716814,46.1466304 99.0143231,45.8524027 99.0143231,45.5475146 C99.0143231,43.5942203 97.4310978,42.0112996 95.4781082,42.0112996" id="Fill-13" fill="#FBE6A7"></path>
                            <path d="M92.5961691,32.8595083 C93.0067477,32.6639657 93.4045338,32.4775606 93.7599828,32.2780583 L94.2080252,32.0666774 C99.2900017,30.0877981 104.731387,23.4993514 104.731387,16.844201 C104.731387,16.5996204 104.710066,16.3605223 104.679303,16.1241655 C104.15481,22.4129019 99.0241002,28.4290361 94.2080252,30.3040524 L93.7599828,30.515738 C93.4045338,30.7152402 93.0067477,30.9016453 92.5961691,31.0971879 C90.2798113,32.2006941 85.967822,34.2554147 85.967822,39.5749663 C85.967822,39.8731536 85.9857925,40.1676859 86.0129004,40.4591723 C86.4582015,35.7889928 90.4123051,33.9002703 92.5961691,32.8595083" id="Fill-15" fill="#FBE6A7"></path>
                            <path d="M53.0820891,43.773955 C54.4262162,43.773955 55.5199758,42.6805001 55.5199758,41.3372867 C55.5199758,41.0808273 55.478857,40.8715785 55.2668668,40.634917 C54.8706036,41.4463276 54.0442685,42.0113301 53.0820891,42.0113301 C51.1290994,42.0113301 49.5458741,43.5942508 49.5458741,45.547545 C49.5458741,45.8524331 49.5885158,46.1466609 49.6613113,46.4287052 C50.0533103,44.9030462 51.4339875,43.773955 53.0820891,43.773955" id="Fill-17" fill="#FBE6A7"></path>
                            <path d="M55.9640281,31.0971575 C55.5534495,30.9016148 55.1556634,30.7152097 54.8002144,30.5157075 L54.352172,30.3040219 C49.536097,28.4290056 44.4053872,22.4128715 43.8808943,16.124135 C43.8501314,16.3604919 43.828506,16.5995899 43.828506,16.8441705 C43.828506,23.499321 49.269891,30.0880722 54.352172,32.0669515 L54.8002144,32.2780279 C55.1556634,32.4775301 55.5534495,32.6642398 55.9640281,32.8594779 C58.1478921,33.9002398 62.1016911,35.7889624 62.5472968,40.4591419 C62.5744048,40.1676554 62.5923752,39.8731231 62.5923752,39.5749358 C62.5923752,34.2553842 58.2800814,32.2006637 55.9640281,31.0971575" id="Fill-19" fill="#FBE6A7"></path>
                            <path d="M49.3857546,4.21647183 C55.9580583,4.21647183 61.3714216,9.26403033 61.9580495,15.6861744 C61.9921629,15.4894134 62.0134837,15.2883882 62.0134837,15.0818806 C62.0134837,8.1187962 56.3485344,2.45384686 49.3857546,2.45384686 C42.422061,2.45384686 36.7565025,8.1187962 36.7565025,15.0818806 C36.7565025,15.4120492 36.7662492,15.7409994 36.7826967,16.0687313 C37.1847469,9.46566463 42.6824799,4.21647183 49.3857546,4.21647183" id="Fill-21" fill="#FBE6A7"></path>
                            <path d="M60.8150693,70.4250152 C60.8150693,70.4250152 66.9569965,70.7634075 74.4768596,70.7634075 C83.1337331,70.7634075 88.3810984,70.4250152 88.3810984,70.4250152 C88.3810984,70.4250152 85.4988243,71.7791936 74.8313948,71.7791936 C63.8810072,71.7791936 60.8150693,70.4250152 60.8150693,70.4250152" id="Fill-23" fill="#FBDC7E"></path>
                            <path d="M75.0091498,52.089634 C75.0091498,52.089634 75.0846865,52.3217267 75.1812395,52.7280412 C75.2784016,53.134051 75.4044992,53.7142827 75.5068393,54.4105607 C75.7380182,55.802812 75.8766037,57.6595533 75.879345,59.5162946 C75.8784312,61.3730359 75.7413686,63.2297772 75.5089714,64.6220286 C75.4066313,65.3186111 75.2799246,65.8988428 75.1821532,66.3048526 C75.0852957,66.7108625 75.0091498,66.9432597 75.0091498,66.9432597 C75.0091498,66.9432597 74.9330039,66.7108625 74.8361463,66.3048526 C74.738375,65.8988428 74.6113637,65.3186111 74.5093282,64.6220286 C74.2769309,63.2297772 74.1398683,61.3730359 74.1389546,59.5162946 C74.1416958,57.6595533 74.2802814,55.802812 74.5114603,54.4105607 C74.6141049,53.7142827 74.7398979,53.134051 74.8370601,52.7280412 C74.9336131,52.3217267 75.0091498,52.089634 75.0091498,52.089634" id="Fill-25" fill="#FBDC7E"></path>
                            <path d="M95.4781082,49.0836381 C90.2340933,49.0836381 85.9677916,44.8182502 85.9677916,39.5748445 C85.9677916,34.2552929 90.2800854,32.2005723 92.5961387,31.0970661 C93.0067173,30.9018281 93.4045034,30.7151183 93.7599524,30.5156161 L94.2079948,30.3042351 C99.2899712,28.3256604 104.731356,21.7369092 104.731356,15.0814542 C104.731356,12.0188667 102.23834,9.52615493 99.174534,9.52615493 C96.1110328,9.52615493 93.6189302,12.0188667 93.6189302,15.0814542 C93.6189302,17.0347485 92.0357049,18.6179737 90.0827153,18.6179737 C88.1297256,18.6179737 86.5468049,17.0347485 86.5468049,15.0814542 C86.5468049,8.11867437 92.2114496,2.45372503 99.174534,2.45372503 C106.138228,2.45372503 111.803786,8.11867437 111.803786,15.0814542 C111.803786,24.971891 104.317123,33.8361859 96.999503,36.8046571 C96.5746089,37.0333994 96.113774,37.2548316 95.6383191,37.4814418 C93.2640904,38.6126651 93.0402215,38.9537986 93.0402215,39.5748445 C93.0402215,40.9180579 94.1336764,42.0112082 95.4781082,42.0112082 C97.4310978,42.0112082 99.0140185,43.5944335 99.0140185,45.5477278 C99.0140185,47.5007175 97.4310978,49.0836381 95.4781082,49.0836381" id="Fill-27" fill="#FFC82C"></path>
                            <path d="M53.0820891,49.0836381 C51.1290994,49.0836381 49.5458741,47.5007175 49.5458741,45.5477278 C49.5458741,43.5944335 51.1290994,42.0112082 53.0820891,42.0112082 C54.4262162,42.0112082 55.5199758,40.9180579 55.5199758,39.5748445 C55.5199758,38.9537986 55.2961068,38.6126651 52.9215735,37.4814418 C52.4464232,37.2548316 51.9855883,37.0333994 51.5606943,36.8046571 C44.2430746,33.8361859 36.7564111,24.971891 36.7564111,15.0814542 C36.7564111,8.11867437 42.4219696,2.45372503 49.3856632,2.45372503 C56.3487476,2.45372503 62.0133923,8.11867437 62.0133923,15.0814542 C62.0133923,17.0347485 60.4304717,18.6179737 58.477482,18.6179737 C56.5244923,18.6179737 54.941267,17.0347485 54.941267,15.0814542 C54.941267,12.0188667 52.4491645,9.52615493 49.3856632,9.52615493 C46.3215527,9.52615493 43.8285364,12.0188667 43.8285364,15.0814542 C43.8285364,21.7369092 49.2699214,28.3256604 54.3522024,30.3042351 L54.8002448,30.5156161 C55.1556938,30.7151183 55.5534799,30.9018281 55.9640586,31.0970661 C58.2801118,32.2005723 62.5924056,34.2552929 62.5924056,39.5748445 C62.5924056,44.8182502 58.3261039,49.0836381 53.0820891,49.0836381" id="Fill-29" fill="#FFC82C"></path>
                            <path d="M58.6868527,13.7091226 C58.6868527,13.7091226 58.7818828,15.7388673 59.1169247,18.7381015 C59.1553022,19.1130438 59.2070814,19.5026062 59.2612973,19.9055702 C59.307594,20.3088388 59.3621144,20.7248999 59.4257724,21.1516215 C59.4830341,21.5789522 59.5491287,22.0166387 59.6280158,22.4619399 C59.7005067,22.9084594 59.7662968,23.3653347 59.8567581,23.8261696 C60.0160553,24.7508852 60.2249996,25.6972263 60.4348577,26.656969 C60.6465432,27.6173209 60.9115309,28.5785866 61.1832194,29.5368064 C61.3272874,30.0089109 61.4713555,30.4807108 61.6145097,30.9509878 C61.7829444,31.425529 61.95077,31.8982427 62.1170726,32.3673013 C62.2946448,32.8193033 62.4706941,33.268564 62.6446113,33.7120377 C62.8267522,34.1536838 63.0277774,34.5849741 63.2138779,35.0126094 C63.4167306,35.4329347 63.6162328,35.8465591 63.8111662,36.2513507 C64.0121914,36.6534009 64.2257044,37.0383945 64.4242929,37.4185148 C64.637806,37.7904113 64.8458365,38.1522566 65.0465571,38.5019185 C65.2591564,38.8457933 65.4647503,39.1777894 65.6621204,39.4963837 C66.0766586,40.1213892 66.4607385,40.6940062 66.8265433,41.1843857 C67.1932619,41.6738515 67.5176434,42.0996593 67.8021244,42.4356149 C68.3631673,43.1166638 68.7228805,43.4760723 68.7228805,43.4760723 C68.7228805,43.4760723 68.6211496,43.3999264 68.4304803,43.2573814 C68.2446843,43.1087446 67.9653812,42.8955361 67.6397814,42.5918663 C66.9788351,41.994578 66.0775724,41.0844823 65.1303176,39.8755903 C64.8994432,39.5688746 64.6591268,39.2496711 64.4102821,38.9185888 C64.178494,38.5756277 63.9390913,38.2204833 63.6926832,37.8555922 C63.2236246,37.1105808 62.7423826,36.3137903 62.3062189,35.4557785 C62.0963609,35.0226607 61.8731011,34.5886291 61.6653752,34.1363225 C61.4692234,33.6788381 61.2541874,33.217394 61.0677823,32.747117 C60.895388,32.280495 60.7217754,31.810218 60.5469444,31.3381135 C60.3897793,30.847734 60.2317004,30.3552224 60.0739262,29.8627108 C59.7903589,28.8776877 59.5439508,27.8826132 59.3371386,26.8972854 C59.1236255,25.913176 58.9679833,24.9342445 58.8400582,23.9860759 C58.7033002,23.0391257 58.6137526,22.1183696 58.5555772,21.2445195 C58.4830863,20.3721922 58.45476,19.5443341 58.4440996,18.7813523 C58.4130321,17.2553888 58.4757763,15.9846662 58.5424801,15.0983281 C58.6110114,14.2116854 58.6868527,13.7091226 58.6868527,13.7091226" id="Fill-31" fill="#FBDC7E"></path>
                            <path d="M90.2873954,13.7091226 C90.2873954,13.7091226 90.3635413,14.2116854 90.4320726,15.0983281 C90.4987764,15.9846662 90.5615206,17.2553888 90.5304531,18.7813523 C90.5197926,19.5443341 90.4911618,20.3721922 90.4189755,21.2445195 C90.3608,22.1183696 90.2709479,23.0391257 90.1341899,23.9860759 C90.0065694,24.9342445 89.8509272,25.913176 89.6371095,26.8972854 C89.4302973,27.8826132 89.1841938,28.8776877 88.9006265,29.8627108 C88.7425477,30.3552224 88.5844688,30.847734 88.4273037,31.3381135 C88.2527773,31.810218 88.0788601,32.280495 87.9064658,32.747117 C87.7200607,33.217394 87.5050247,33.6788381 87.3091775,34.1363225 C87.1014515,34.5886291 86.8781918,35.0226607 86.6683337,35.4557785 C86.2318655,36.3137903 85.7506235,37.1105808 85.2815648,37.8555922 C85.0354613,38.2204833 84.7957541,38.5756277 84.563966,38.9185888 C84.3154258,39.2496711 84.0751094,39.5688746 83.8442351,39.8755903 C82.8966757,41.0844823 81.995413,41.994578 81.3347713,42.5918663 C81.0088669,42.8955361 80.7295638,43.1087446 80.5437678,43.2573814 C80.3530985,43.3999264 80.2516722,43.4760723 80.2516722,43.4760723 C80.2516722,43.4760723 80.6113854,43.1166638 81.1721237,42.4356149 C81.4569093,42.0996593 81.7812908,41.6738515 82.1480093,41.1843857 C82.5138142,40.6940062 82.8975894,40.1213892 83.3124322,39.4963837 C83.5094978,39.1777894 83.7150917,38.8457933 83.927691,38.5019185 C84.1287161,38.1522566 84.3364421,37.7904113 84.5499552,37.4185148 C84.7488482,37.0383945 84.9620567,36.6534009 85.1633864,36.2513507 C85.3580153,35.8465591 85.5578221,35.4329347 85.7603702,35.0126094 C85.9464707,34.5849741 86.1474959,34.1536838 86.3296368,33.7120377 C86.503554,33.268564 86.6796033,32.8193033 86.8571755,32.3673013 C87.0237827,31.8982427 87.1913037,31.425529 87.3597384,30.9509878 C87.5028926,30.4807108 87.6472652,30.0089109 87.7913333,29.5368064 C88.0627172,28.5785866 88.3280095,27.6173209 88.539695,26.656969 C88.7492485,25.6972263 88.9584974,24.7508852 89.1177946,23.8261696 C89.2079513,23.3653347 89.2740459,22.9084594 89.3465368,22.4619399 C89.4251194,22.0166387 89.491214,21.5789522 89.5487803,21.1516215 C89.6121337,20.7248999 89.6669587,20.3088388 89.7132554,19.9055702 C89.7674713,19.5026062 89.8189459,19.1130438 89.8573234,18.7381015 C90.1923653,15.7388673 90.2873954,13.7091226 90.2873954,13.7091226" id="Fill-33" fill="#FBDC7E"></path>
                            <path d="M52.9806627,4.16974872 C52.9806627,4.16974872 52.4089594,4.0774599 51.4041383,4.05705281 C50.403886,4.03481821 48.9595508,4.07319574 47.3010934,4.44661516 C46.475672,4.64033029 45.5984714,4.91841507 44.7355862,5.33752203 C43.872701,5.75480148 43.0347917,6.32620021 42.2934354,7.04197154 C41.5523836,7.75835204 40.926769,8.63402972 40.456492,9.60839248 C39.9776867,10.5794048 39.6533052,11.646361 39.4440563,12.7376838 C39.2448587,13.8290067 39.153179,14.9590116 39.153179,16.0500299 C39.1556157,17.1215548 39.3612096,18.1842468 39.5887335,19.2009466 C40.0970834,21.2319097 40.8591514,23.0718989 41.5706586,24.6222291 C42.2906941,26.1710364 42.9656512,27.4384086 43.4493299,28.3210917 C43.9354452,29.202861 44.2275409,29.7048147 44.2275409,29.7048147 C44.2275409,29.7048147 43.8172668,29.292104 43.1837331,28.4983593 C42.551113,27.7049192 41.6870095,26.5325771 40.8140731,25.0148373 C39.9402229,23.5022754 39.0426152,21.6370058 38.4806585,19.4784222 C38.2019646,18.4001965 38.0192145,17.246434 38.0307887,16.0478978 C38.0384032,14.8722053 38.1718108,13.6998632 38.4115181,12.530567 C38.6664545,11.3682762 39.0362189,10.2169504 39.5981756,9.17040135 C40.155868,8.12446146 40.885041,7.18573497 41.7284329,6.43432737 C42.5675605,5.67591434 43.5196887,5.12187688 44.4593289,4.72622285 C45.4014058,4.32904591 46.3370865,4.0923845 47.2063679,3.95806316 C48.9482812,3.68607005 50.4118051,3.7795772 51.4160171,3.89379603 C52.4223611,4.01897986 52.9806627,4.16974872 52.9806627,4.16974872" id="Fill-35" fill="#FBDC7E"></path>
                            <path d="M95.8716301,4.16974872 C95.8716301,4.16974872 96.4299317,4.01897986 97.4365803,3.89379603 C98.4404877,3.7795772 99.9040116,3.68607005 101.645925,3.95806316 C102.515206,4.0923845 103.450887,4.32904591 104.392964,4.72622285 C105.332604,5.12187688 106.285037,5.67591434 107.124165,6.43432737 C107.967252,7.18573497 108.696425,8.12446146 109.254117,9.17040135 C109.816074,10.2169504 110.185838,11.3682762 110.440775,12.530567 C110.680482,13.6998632 110.814194,14.8722053 110.821504,16.0478978 C110.833078,17.246434 110.650328,18.4001965 110.371634,19.4784222 C109.809678,21.6370058 108.91207,23.5022754 108.03822,25.0148373 C107.165283,26.5325771 106.30118,27.7049192 105.66856,28.4983593 C105.035026,29.292104 104.625057,29.7048147 104.625057,29.7048147 C104.625057,29.7048147 104.916848,29.202861 105.402963,28.3210917 C105.886642,27.4384086 106.561599,26.1710364 107.281634,24.6222291 C107.993141,23.0718989 108.755209,21.2319097 109.263864,19.2009466 C109.491388,18.1842468 109.696982,17.1215548 109.699114,16.0500299 C109.699418,14.9590116 109.607434,13.8290067 109.408237,12.7376838 C109.199292,11.646361 108.874606,10.5794048 108.396105,9.60839248 C107.925524,8.63402972 107.299909,7.75835204 106.559162,7.04197154 C105.817806,6.32620021 104.979592,5.75480148 104.116707,5.33752203 C103.253821,4.91841507 102.376621,4.64033029 101.551199,4.44661516 C99.8930466,4.07319574 98.4484069,4.03481821 97.4481545,4.05705281 C96.4433334,4.0774599 95.8716301,4.16974872 95.8716301,4.16974872" id="Fill-37" fill="#FBDC7E"></path>
                            <path d="M92.493829,46.5797482 C92.493829,46.5797482 92.8172968,46.7926521 93.2373175,46.9952001 C93.3436171,47.0448473 93.459968,47.0914485 93.5769281,47.138659 C93.6951065,47.1846511 93.8166354,47.2300341 93.9448651,47.2668887 C94.0663939,47.3159266 94.2061977,47.3311558 94.3329045,47.3762342 C94.4708808,47.3939 94.6018518,47.43776 94.7428739,47.4517709 C94.8842007,47.4666955 95.0203495,47.5026363 95.1653313,47.5069005 C95.3084856,47.5114693 95.4482894,47.5471055 95.5914437,47.5434505 C95.8753156,47.5669035 96.1515728,47.5736043 96.4019405,47.5934022 C96.6513944,47.6156368 96.8673442,47.6135047 97.0269459,47.6375668 C97.185634,47.6567556 97.2834053,47.6771627 97.2834053,47.6771627 C97.2834053,47.6771627 97.2212702,47.7481307 97.100046,47.8565624 C96.9763851,47.957075 96.803077,48.1239868 96.5575827,48.241556 C96.3175709,48.3786186 96.0181652,48.5019749 95.6724629,48.5698971 C95.503419,48.6171075 95.3167093,48.6210671 95.129695,48.6320321 C94.9429853,48.653353 94.7480519,48.6143663 94.5555551,48.597005 C94.3636674,48.5680696 94.1729981,48.5062391 93.990248,48.4468453 C93.8123712,48.3649123 93.6338853,48.2960765 93.4837256,48.1839897 C93.1693953,47.9872287 92.9366935,47.7216319 92.7828788,47.4782696 C92.6226679,47.2385624 92.5535274,47.0022056 92.5181957,46.84169 C92.486519,46.6766058 92.493829,46.5797482 92.493829,46.5797482" id="Fill-39" fill="#FBDC7E"></path>
                            <path d="M56.2275842,46.5491071 C56.2275842,46.5491071 56.2297163,46.6462692 56.188293,46.8092214 C56.1435192,46.9673003 56.060977,47.1996975 55.8873644,47.4296581 C55.7198435,47.6632737 55.4725216,47.9154689 55.1472264,48.0933457 C54.9903659,48.1969041 54.8085295,48.2556887 54.626084,48.3269612 C54.4405926,48.3756946 54.2462683,48.4262555 54.0531623,48.4442259 C53.8600564,48.4503176 53.6632954,48.4780347 53.4781086,48.446358 C53.292008,48.4247326 53.1059075,48.4095034 52.9399095,48.3528508 C52.5984713,48.2651308 52.3066803,48.1250223 52.0748922,47.9742535 C51.8367079,47.8426734 51.6734511,47.6660149 51.5555773,47.558497 C51.4410538,47.443669 51.3828784,47.3687414 51.3828784,47.3687414 C51.3828784,47.3687414 51.4815635,47.354426 51.6411652,47.3440701 C51.8019853,47.3291455 52.0173259,47.3437656 52.2676936,47.336151 C52.518975,47.3303639 52.7949277,47.339806 53.0797133,47.3328005 C53.222563,47.3446793 53.3641943,47.3169622 53.5073486,47.3206172 C53.6523304,47.325186 53.7903067,47.2968597 53.9322427,47.2904634 C54.073874,47.2843718 54.206977,47.2481263 54.3455625,47.2383796 C54.4750105,47.2009159 54.615119,47.1933013 54.739389,47.1515733 C54.8697508,47.1220287 54.9934117,47.0839558 55.1143314,47.0446645 C55.2337281,47.0041549 55.3525157,46.964559 55.461252,46.9210036 C55.8925423,46.7434314 56.2275842,46.5491071 56.2275842,46.5491071" id="Fill-41" fill="#FBDC7E"></path>
                            <path d="M86.5327331,24.4445046 L80.7200608,28.9480769 L83.2225192,35.8636463 C83.3620184,36.2516857 83.2368346,36.6857173 82.9109302,36.9388262 C82.7482826,37.0670559 82.5533491,37.1325413 82.3578065,37.1389376 C82.1622639,37.1450292 81.9633708,37.0926409 81.792804,36.9750716 L75.6993056,32.8415684 L69.8851104,37.357324 C69.5585968,37.6113467 69.1068994,37.6244437 68.7669842,37.3935694 C68.425546,37.1611722 66.5867752,35.5085019 66.700994,35.1131524 L70.4342745,29.2840326 L64.3419944,25.1663676 C64.0008609,24.9373208 62.165745,23.4427293 62.2799638,23.0446387 C62.3950964,22.6492892 64.4443345,23.8356421 64.8567406,23.8222404 L72.2148699,23.5828378 L74.2549705,16.3115148 C74.3697985,15.9173837 73.2005022,14.028052 73.6126038,14.0146503 C74.0250099,14.0009441 75.9262204,15.9149471 76.0654151,16.3029865 L78.573356,23.3760256 L84.2800332,21.5899476 C85.3448573,21.4882167 86.7115237,23.1798737 86.8504138,23.5666948 C86.9914359,23.9565618 86.8583329,24.1938324 86.5327331,24.4445046" id="Fill-43" fill="#CB9F2C"></path>
                            <path d="M84.8819208,22.8977989 L79.0692484,27.4013712 L81.5717068,34.3169406 C81.7115107,34.70498 81.5860222,35.1390116 81.2601179,35.3921205 C81.0977748,35.5203502 80.9028414,35.5858356 80.7069941,35.5922319 C80.5114515,35.5986281 80.3125585,35.5459352 80.1419917,35.4283659 L74.0484933,31.2948627 L68.2346026,35.8106183 C67.9077845,36.064641 67.4560871,36.077738 67.1161718,35.8468637 C66.7747337,35.6144665 66.6215281,35.1904862 66.735747,34.7957459 L68.7834621,27.7373269 L62.6914867,23.6196619 C62.3503531,23.3906151 62.2020209,23.1627866 62.3159352,22.7646959 C62.4313723,22.3696511 62.7935222,22.2889364 63.2062329,22.2755347 L70.5643621,22.0361321 L72.6044627,14.7648091 C72.7192907,14.370678 73.0729122,13.9936036 73.4850137,13.9802019 C73.8974198,13.9668002 74.2757126,14.3682414 74.4146027,14.7562808 L76.9225436,21.8293199 L84.2797591,21.5899172 C84.6921652,21.5765155 85.0607113,21.6331681 85.199906,22.0199892 C85.3406236,22.4098561 85.2078252,22.6471267 84.8819208,22.8977989" id="Fill-45" fill="#FFD253"></path>
                            <path d="M67.4876419,35.4112788 L69.5353571,28.3528597 L68.7574507,27.8274531 L66.7356251,34.7957155 C66.6214063,35.1904557 66.7746118,35.614436 67.11605,35.8468333 C67.2354467,35.9275479 67.3688543,35.9677529 67.5053078,35.9887692 C67.4413452,35.8066282 67.4315985,35.6059077 67.4876419,35.4112788" id="Fill-47" fill="#FFF3D4"></path>
                            <path d="M77.6745299,22.4453705 L85.0317454,22.2059679 C85.1036271,22.2035312 85.1712447,22.2074908 85.239776,22.2108412 C85.2315522,22.1496199 85.2248514,22.0899215 85.199571,22.0201719 C85.0606809,21.6330462 84.6921348,21.5763937 84.2797287,21.5897954 L77.4500518,21.8121413 L77.6745299,22.4453705 Z" id="Fill-49" fill="#FFF3D4"></path>
                            <path d="M63.0679215,23.3805334 C63.1833586,22.9851839 63.5458131,22.9047739 63.9582192,22.8916768 L71.3163484,22.6519696 L73.356449,15.380342 C73.471277,14.9865155 73.8245939,14.6094411 74.237,14.5960394 C74.2747684,14.5948211 74.3119276,14.6006081 74.3487822,14.6060906 C74.1769971,14.2716579 73.8440873,13.9685973 73.4849833,13.9801715 C73.0725772,13.9935731 72.7192602,14.3706476 72.6047368,14.7647787 L70.5640271,22.0361016 L63.2058978,22.2755043 C62.7937963,22.288906 62.4310373,22.3696206 62.3159047,22.7646655 C62.2016859,23.1627562 62.3503226,23.3905846 62.6911516,23.6196315 L63.1059944,23.9001529 C63.0264981,23.7576078 63.0067002,23.594351 63.0679215,23.3805334" id="Fill-51" fill="#FFF3D4"></path>
                            <path d="M81.5306185,111.831412 C80.5270157,111.831412 79.5151892,111.523782 78.6431665,110.88568 C77.9420152,110.372457 61.2986566,98.1208882 46.6043281,82.3099564 C25.5451173,59.6510728 19.3882655,41.4534244 28.3037304,28.2210969 C29.8141602,25.9778391 32.8548177,25.3890791 35.0947251,26.8976814 C37.3352417,28.407502 37.9279612,31.4481596 36.4181406,33.6886761 C23.8488915,52.3428953 67.9763462,90.9421586 84.4259897,102.993007 C86.6052849,104.589634 87.0779986,107.651003 85.4807625,109.830603 C84.5228472,111.138789 83.0364795,111.831412 81.5306185,111.831412" id="Fill-53" fill="#0382A6"></path>
                            <path d="M63.986119,85.541466 C63.986119,85.541466 39.8868599,75.6948892 30.040283,99.7938438 C30.040283,99.7938438 54.1392376,109.640725 63.986119,85.541466" id="Fill-55" fill="#9DDBEE"></path>
                            <path d="M48.921752,76.6597489 C48.921752,76.6597489 29.6434411,59.1647747 12.1481624,78.442781 C12.1481624,78.442781 31.4264732,95.9380598 48.921752,76.6597489" id="Fill-57" fill="#9DDBEE"></path>
                            <path d="M35.1655103,62.9996034 C35.1655103,62.9996034 23.0336432,39.9657774 0.000121833418,52.0976446 C0.000121833418,52.0976446 12.1316844,75.1314705 35.1655103,62.9996034" id="Fill-59" fill="#9DDBEE"></path>
                            <path d="M29.3516501,46.6600669 C29.3516501,46.6600669 25.8297506,20.8658003 0.0354839829,24.3880044 C0.0354839829,24.3880044 3.5573835,50.1819664 29.3516501,46.6600669" id="Fill-61" fill="#9DDBEE"></path>
                            <path d="M32.3609051,30.9555566 C32.3609051,30.9555566 37.873258,5.51247481 12.4298717,0.000121833418 C12.4298717,0.000121833418 6.91782329,25.442899 32.3609051,30.9555566" id="Fill-63" fill="#9DDBEE"></path>
                            <path d="M63.986119,85.541466 C63.986119,85.541466 39.8868599,75.6948892 30.040283,99.7938438 C30.040283,99.7938438 54.1392376,109.640725 63.986119,85.541466" id="Fill-65" fill="#9DDBEE"></path>
                            <path d="M48.921752,76.6597489 C48.921752,76.6597489 29.6434411,59.1647747 12.1481624,78.442781 C12.1481624,78.442781 31.4264732,95.9380598 48.921752,76.6597489" id="Fill-67" fill="#9DDBEE"></path>
                            <path d="M35.1655103,62.9996034 C35.1655103,62.9996034 23.0336432,39.9657774 0.000121833418,52.0976446 C0.000121833418,52.0976446 12.1316844,75.1314705 35.1655103,62.9996034" id="Fill-69" fill="#9DDBEE"></path>
                            <path d="M29.3516501,46.6600669 C29.3516501,46.6600669 25.8297506,20.8658003 0.0354839829,24.3880044 C0.0354839829,24.3880044 3.5573835,50.1819664 29.3516501,46.6600669" id="Fill-71" fill="#9DDBEE"></path>
                            <path d="M32.3609051,30.9555566 C32.3609051,30.9555566 37.873258,5.51247481 12.4298717,0.000121833418 C12.4298717,0.000121833418 6.91782329,25.442899 32.3609051,30.9555566" id="Fill-73" fill="#9DDBEE"></path>
                            <path d="M68.1396639,111.831412 C66.6338029,111.831412 65.1486535,111.138789 64.1895199,109.830603 C62.592893,107.651916 63.0649975,104.590852 65.243379,102.993007 C81.6887583,90.936067 125.808294,52.3230973 113.251837,33.6886761 C111.742017,31.4481596 112.334736,28.407502 114.575253,26.8976814 C116.816683,25.3890791 119.855818,25.9796666 121.365943,28.2210969 C130.281712,41.4534244 124.124861,59.6510728 103.06565,82.3099564 C88.3713212,98.1208882 71.7279626,110.372457 71.0268113,110.88568 C70.1553978,111.523782 69.1429621,111.831412 68.1396639,111.831412" id="Fill-75" fill="#0382A6"></path>
                            <path d="M85.6835542,85.541466 C85.6835542,85.541466 109.782813,75.6948892 119.62939,99.7938438 C119.62939,99.7938438 95.5304356,109.640725 85.6835542,85.541466" id="Fill-77" fill="#9DDBEE"></path>
                            <path d="M100.748226,76.6597489 C100.748226,76.6597489 120.026232,59.1647747 137.521511,78.442781 C137.521511,78.442781 118.2432,95.9380598 100.748226,76.6597489" id="Fill-79" fill="#9DDBEE"></path>
                            <path d="M114.504163,62.9996034 C114.504163,62.9996034 126.63603,39.9657774 149.669551,52.0976446 C149.669551,52.0976446 137.537989,75.1314705 114.504163,62.9996034" id="Fill-81" fill="#9DDBEE"></path>
                            <path d="M120.318023,46.6600669 C120.318023,46.6600669 123.839923,20.8658003 149.634189,24.3880044 C149.634189,24.3880044 146.11229,50.1819664 120.318023,46.6600669" id="Fill-83" fill="#9DDBEE"></path>
                            <path d="M117.309073,30.9555566 C117.309073,30.9555566 111.796415,5.51247481 137.239802,0.000121833418 C137.239802,0.000121833418 142.75185,25.442899 117.309073,30.9555566" id="Fill-85" fill="#9DDBEE"></path>
                            <path d="M85.6835542,85.541466 C85.6835542,85.541466 109.782813,75.6948892 119.62939,99.7938438 C119.62939,99.7938438 95.5304356,109.640725 85.6835542,85.541466" id="Fill-87" fill="#9DDBEE"></path>
                            <path d="M100.748226,76.6597489 C100.748226,76.6597489 120.026232,59.1647747 137.521511,78.442781 C137.521511,78.442781 118.2432,95.9380598 100.748226,76.6597489" id="Fill-89" fill="#9DDBEE"></path>
                            <path d="M114.504163,62.9996034 C114.504163,62.9996034 126.63603,39.9657774 149.669551,52.0976446 C149.669551,52.0976446 137.537989,75.1314705 114.504163,62.9996034" id="Fill-91" fill="#9DDBEE"></path>
                            <path d="M120.318023,46.6600669 C120.318023,46.6600669 123.839923,20.8658003 149.634189,24.3880044 C149.634189,24.3880044 146.11229,50.1819664 120.318023,46.6600669" id="Fill-93" fill="#9DDBEE"></path>
                        </g>
                    </g>
                </g>
            </g>
        </g>
    </g>
</svg>